<svg width="32" height="50" viewBox="0 0 32 50" fill="none" xmlns="http://www.w3.org/2000/svg">
<path d="M31.5539 19.1818C31.3446 18.8734 31.0625 18.6209 30.7323 18.4465C30.4021 18.2722 30.0339 18.1813 29.6602 18.1818H22.8156V13.6364H27.835C28.4401 13.6364 29.0204 13.3969 29.4483 12.9707C29.8762 12.5445 30.1165 11.9664 30.1165 11.3636V2.27273C30.1165 1.66996 29.8762 1.09189 29.4483 0.665666C29.0204 0.239447 28.4401 0 27.835 0H20.534C17.0244 0 13.6585 1.38879 11.1768 3.86087C8.69517 6.33294 7.30098 9.68578 7.30098 13.1818V18.1818H2.28156C1.67645 18.1818 1.09613 18.4213 0.668253 18.8475C0.240378 19.2737 0 19.8518 0 20.4545V29.5455C0 30.1482 0.240378 30.7263 0.668253 31.1525C1.09613 31.5787 1.67645 31.8182 2.28156 31.8182H7.30098V47.7273C7.30098 48.33 7.54135 48.9081 7.96923 49.3343C8.3971 49.7606 8.97743 50 9.58253 50H20.534C21.1391 50 21.7194 49.7606 22.1473 49.3343C22.5752 48.9081 22.8156 48.33 22.8156 47.7273V31.8182H26.0097C26.4667 31.8186 26.9132 31.6824 27.2915 31.4271C27.6699 31.1718 27.9625 30.8092 28.1316 30.3864L31.7821 21.2955C31.9199 20.9513 31.9711 20.5788 31.9314 20.2104C31.8916 19.842 31.762 19.4889 31.5539 19.1818V19.1818ZM24.4583 27.2727H20.534C19.9289 27.2727 19.3486 27.5122 18.9207 27.9384C18.4928 28.3646 18.2524 28.9427 18.2524 29.5455V45.4545H11.8641V29.5455C11.8641 28.9427 11.6237 28.3646 11.1958 27.9384C10.768 27.5122 10.1876 27.2727 9.58253 27.2727H4.56311V22.7273H9.58253C10.1876 22.7273 10.768 22.4878 11.1958 22.0616C11.6237 21.6354 11.8641 21.0573 11.8641 20.4545V13.1818C11.8701 10.8932 12.7855 8.69995 14.4101 7.08161C16.0347 5.46328 18.2364 4.55145 20.534 4.54545H25.5534V9.09091H23.7282C22.9557 8.9788 22.1683 9.02585 21.4148 9.22913C20.6613 9.43242 19.9577 9.78761 19.3476 10.2727C18.9773 10.6589 18.6894 11.1157 18.5012 11.6157C18.313 12.1156 18.2284 12.6484 18.2524 13.1818V20.4545C18.2524 21.0573 18.4928 21.6354 18.9207 22.0616C19.3486 22.4878 19.9289 22.7273 20.534 22.7273H26.2835L24.4583 27.2727Z" fill="#383D4D"/>
</svg>
