<svg width="50" height="50" viewBox="0 0 50 50" fill="none" xmlns="http://www.w3.org/2000/svg">
<path d="M24.9999 0C19.0636 0.000252389 13.3211 2.16622 8.79992 6.11035C4.27871 10.0545 1.27381 15.5194 0.322899 21.5272C-0.628014 27.5351 0.537109 33.6939 3.60979 38.9015C6.68247 44.1092 11.4622 48.0259 17.0937 49.9509C18.3437 50.1753 18.8125 49.4063 18.8125 48.7334C18.8125 48.1247 18.7812 46.1061 18.7812 43.9594C12.5 45.1449 10.875 42.3895 10.375 40.9477C9.82019 39.5454 8.94069 38.3027 7.81251 37.327C6.93752 36.8464 5.68753 35.6609 7.78124 35.629C8.5807 35.7179 9.34747 36.0031 10.0166 36.4605C10.6857 36.9178 11.2374 37.5338 11.625 38.2562C11.9669 38.886 12.4267 39.4404 12.978 39.8877C13.5292 40.335 14.1612 40.6663 14.8375 40.8628C15.5139 41.0592 16.2215 41.1169 16.9196 41.0325C17.6178 40.9481 18.2929 40.7232 18.9061 40.3709C19.0144 39.0678 19.5808 37.8494 20.4999 36.9426C14.9375 36.3018 9.125 34.0909 9.125 24.2867C9.08987 21.7392 10.0067 19.2745 11.6875 17.398C10.9232 15.1839 11.0126 12.7542 11.9375 10.6054C11.9375 10.6054 14.0311 9.93257 18.8124 13.2328C22.9031 12.0792 27.2217 12.0792 31.3123 13.2328C36.0935 9.90055 38.1873 10.6054 38.1873 10.6054C39.1123 12.7541 39.2017 15.184 38.4373 17.398C40.1231 19.2713 41.0408 21.7381 40.9998 24.2867C40.9998 34.123 35.156 36.3018 29.5936 36.9426C30.1902 37.5626 30.6497 38.307 30.9409 39.1252C31.2321 39.9435 31.3481 40.8163 31.2811 41.6846C31.2811 45.113 31.2498 47.8684 31.2498 48.7335C31.2498 49.4064 31.7186 50.2074 32.9686 49.951C38.5902 48.0103 43.3562 44.0844 46.4158 38.8741C49.4754 33.6638 50.6294 27.5082 49.6719 21.5061C48.7144 15.5041 45.7077 10.0463 41.1884 6.10692C36.6692 2.1676 30.9316 0.00316535 24.9999 0V0Z" fill="#383D4D"/>
</svg>
