<svg width="50" height="50" viewBox="0 0 50 50" fill="none" xmlns="http://www.w3.org/2000/svg">
<path d="M38.35 8.65C37.7567 8.65 37.1766 8.82595 36.6833 9.15559C36.1899 9.48524 35.8054 9.95377 35.5784 10.5019C35.3513 11.0501 35.2919 11.6533 35.4076 12.2353C35.5234 12.8172 35.8091 13.3518 36.2287 13.7713C36.6482 14.1909 37.1828 14.4766 37.7647 14.5924C38.3467 14.7081 38.9499 14.6487 39.4981 14.4216C40.0462 14.1946 40.5148 13.8101 40.8444 13.3167C41.1741 12.8234 41.35 12.2433 41.35 11.65C41.35 10.8544 41.0339 10.0913 40.4713 9.52868C39.9087 8.96607 39.1456 8.65 38.35 8.65V8.65ZM49.85 14.7C49.8014 12.6257 49.4129 10.5735 48.7 8.625C48.0643 6.95783 47.075 5.4482 45.8 4.2C44.5621 2.91856 43.0489 1.93544 41.375 1.325C39.4316 0.590402 37.3771 0.193025 35.3 0.15C32.65 -1.39698e-07 31.8 0 25 0C18.2 0 17.35 -1.39698e-07 14.7 0.15C12.6229 0.193025 10.5684 0.590402 8.625 1.325C6.95419 1.94162 5.44233 2.9239 4.2 4.2C2.91856 5.43794 1.93544 6.9511 1.325 8.625C0.590402 10.5684 0.193025 12.6229 0.15 14.7C-1.39698e-07 17.35 0 18.2 0 25C0 31.8 -1.39698e-07 32.65 0.15 35.3C0.193025 37.3771 0.590402 39.4316 1.325 41.375C1.93544 43.0489 2.91856 44.5621 4.2 45.8C5.44233 47.0761 6.95419 48.0584 8.625 48.675C10.5684 49.4096 12.6229 49.807 14.7 49.85C17.35 50 18.2 50 25 50C31.8 50 32.65 50 35.3 49.85C37.3771 49.807 39.4316 49.4096 41.375 48.675C43.0489 48.0646 44.5621 47.0814 45.8 45.8C47.0806 44.5565 48.0708 43.0455 48.7 41.375C49.4129 39.4265 49.8014 37.3743 49.85 35.3C49.85 32.65 50 31.8 50 25C50 18.2 50 17.35 49.85 14.7V14.7ZM45.35 35C45.3318 36.5869 45.0444 38.1593 44.5 39.65C44.1008 40.738 43.4597 41.7211 42.625 42.525C41.8141 43.3513 40.8331 43.9911 39.75 44.4C38.2593 44.9444 36.6869 45.2318 35.1 45.25C32.6 45.375 31.675 45.4 25.1 45.4C18.525 45.4 17.6 45.4 15.1 45.25C13.4522 45.2809 11.8115 45.0271 10.25 44.5C9.21445 44.0702 8.27839 43.432 7.5 42.625C6.67022 41.8219 6.03711 40.838 5.65 39.75C5.03964 38.2379 4.70111 36.6299 4.65 35C4.65 32.5 4.5 31.575 4.5 25C4.5 18.425 4.5 17.5 4.65 15C4.66121 13.3776 4.95738 11.7699 5.525 10.25C5.96512 9.19478 6.64066 8.25415 7.5 7.5C8.25953 6.64042 9.19822 5.95774 10.25 5.5C11.7739 4.95011 13.38 4.6627 15 4.65C17.5 4.65 18.425 4.5 25 4.5C31.575 4.5 32.5 4.5 35 4.65C36.5869 4.6682 38.1593 4.95562 39.65 5.5C40.7861 5.92163 41.8057 6.60712 42.625 7.5C43.4443 8.26795 44.0844 9.20683 44.5 10.25C45.0556 11.7723 45.3432 13.3794 45.35 15C45.475 17.5 45.5 18.425 45.5 25C45.5 31.575 45.475 32.5 45.35 35ZM25 12.175C22.4645 12.1799 19.9874 12.9363 17.8816 14.3485C15.7759 15.7608 14.1359 17.7655 13.1691 20.1094C12.2022 22.4533 11.9518 25.0312 12.4495 27.5173C12.9472 30.0035 14.1706 32.2863 15.9652 34.0774C17.7598 35.8686 20.045 37.0875 22.5321 37.5804C25.0193 38.0732 27.5967 37.8178 29.9387 36.8463C32.2807 35.8749 34.2822 34.2311 35.6903 32.1226C37.0984 30.0141 37.85 27.5355 37.85 25C37.8533 23.3128 37.523 21.6415 36.8781 20.0824C36.2332 18.5233 35.2864 17.107 34.0922 15.9151C32.898 14.7232 31.4799 13.7792 29.9195 13.1373C28.3591 12.4955 26.6872 12.1684 25 12.175V12.175ZM25 33.325C23.3535 33.325 21.7439 32.8367 20.3749 31.922C19.0058 31.0072 17.9388 29.707 17.3087 28.1858C16.6786 26.6646 16.5137 24.9908 16.835 23.3759C17.1562 21.761 17.9491 20.2776 19.1133 19.1133C20.2776 17.9491 21.761 17.1562 23.3759 16.835C24.9908 16.5137 26.6646 16.6786 28.1858 17.3087C29.707 17.9388 31.0072 19.0058 31.922 20.3749C32.8367 21.7439 33.325 23.3535 33.325 25C33.325 26.0933 33.1097 27.1758 32.6913 28.1858C32.2729 29.1959 31.6597 30.1136 30.8867 30.8867C30.1136 31.6597 29.1959 32.2729 28.1858 32.6913C27.1758 33.1097 26.0933 33.325 25 33.325V33.325Z" fill="#383D4D"/>
</svg>
