<svg width="51" height="51" viewBox="0 0 51 51" fill="none" xmlns="http://www.w3.org/2000/svg">
<path d="M27.2028 23.8562H14.7028C14.1503 23.8562 13.6204 24.0757 13.2297 24.4664C12.839 24.8571 12.6195 25.387 12.6195 25.9396C12.6195 26.4921 12.839 27.022 13.2297 27.4127C13.6204 27.8034 14.1503 28.0229 14.7028 28.0229H27.2028C27.7553 28.0229 28.2852 27.8034 28.6759 27.4127C29.0666 27.022 29.2861 26.4921 29.2861 25.9396C29.2861 25.387 29.0666 24.8571 28.6759 24.4664C28.2852 24.0757 27.7553 23.8562 27.2028 23.8562ZM35.5361 15.5229H14.7028C14.1503 15.5229 13.6204 15.7424 13.2297 16.1331C12.839 16.5238 12.6195 17.0537 12.6195 17.6062C12.6195 18.1588 12.839 18.6887 13.2297 19.0794C13.6204 19.4701 14.1503 19.6896 14.7028 19.6896H35.5361C36.0887 19.6896 36.6186 19.4701 37.0093 19.0794C37.4 18.6887 37.6195 18.1588 37.6195 17.6062C37.6195 17.0537 37.4 16.5238 37.0093 16.1331C36.6186 15.7424 36.0887 15.5229 35.5361 15.5229ZM39.7028 5.10623H10.5361C8.87853 5.10623 7.28882 5.76471 6.11672 6.93681C4.94461 8.10892 4.28613 9.69863 4.28613 11.3562V32.1896C4.28613 33.8472 4.94461 35.4369 6.11672 36.609C7.28882 37.7811 8.87853 38.4396 10.5361 38.4396H34.682L42.3903 46.1687C42.585 46.3618 42.8158 46.5146 43.0697 46.6183C43.3235 46.7219 43.5953 46.7745 43.8695 46.7729C44.1428 46.7799 44.4139 46.7229 44.6611 46.6062C45.0416 46.4499 45.3673 46.1845 45.5971 45.8434C45.827 45.5024 45.9507 45.1009 45.9528 44.6896V11.3562C45.9528 9.69863 45.2943 8.10892 44.1222 6.93681C42.9501 5.76471 41.3604 5.10623 39.7028 5.10623ZM41.7861 39.6687L37.0153 34.8771C36.8206 34.684 36.5898 34.5312 36.3359 34.4275C36.0821 34.3239 35.8103 34.2713 35.5361 34.2729H10.5361C9.9836 34.2729 9.4537 34.0534 9.06299 33.6627C8.67229 33.272 8.4528 32.7421 8.4528 32.1896V11.3562C8.4528 10.8037 8.67229 10.2738 9.06299 9.88309C9.4537 9.49239 9.9836 9.2729 10.5361 9.2729H39.7028C40.2553 9.2729 40.7852 9.49239 41.1759 9.88309C41.5666 10.2738 41.7861 10.8037 41.7861 11.3562V39.6687Z" fill="#383D4D"/>
</svg>
