<svg width="34" height="34" viewBox="0 0 34 34" fill="none" xmlns="http://www.w3.org/2000/svg">
<path d="M17 7.00001C16.558 7.00001 16.1341 7.17561 15.8215 7.48817C15.509 7.80073 15.3334 8.22465 15.3334 8.66668V25.3333C15.3334 25.7754 15.509 26.1993 15.8215 26.5119C16.1341 26.8244 16.558 27 17 27C17.4421 27 17.866 26.8244 18.1786 26.5119C18.4911 26.1993 18.6667 25.7754 18.6667 25.3333V8.66668C18.6667 8.22465 18.4911 7.80073 18.1786 7.48817C17.866 7.17561 17.4421 7.00001 17 7.00001ZM8.66671 17C8.22468 17 7.80076 17.1756 7.4882 17.4882C7.17564 17.8007 7.00004 18.2247 7.00004 18.6667V25.3333C7.00004 25.7754 7.17564 26.1993 7.4882 26.5119C7.80076 26.8244 8.22468 27 8.66671 27C9.10874 27 9.53266 26.8244 9.84522 26.5119C10.1578 26.1993 10.3334 25.7754 10.3334 25.3333V18.6667C10.3334 18.2247 10.1578 17.8007 9.84522 17.4882C9.53266 17.1756 9.10874 17 8.66671 17ZM25.3334 13.6667C24.8913 13.6667 24.4674 13.8423 24.1549 14.1548C23.8423 14.4674 23.6667 14.8913 23.6667 15.3333V25.3333C23.6667 25.7754 23.8423 26.1993 24.1549 26.5119C24.4674 26.8244 24.8913 27 25.3334 27C25.7754 27 26.1993 26.8244 26.5119 26.5119C26.8244 26.1993 27 25.7754 27 25.3333V15.3333C27 14.8913 26.8244 14.4674 26.5119 14.1548C26.1993 13.8423 25.7754 13.6667 25.3334 13.6667ZM28.6667 0.333344H5.33337C4.00729 0.333344 2.73552 0.860128 1.79784 1.79781C0.860158 2.73549 0.333374 4.00726 0.333374 5.33334V28.6667C0.333374 29.9928 0.860158 31.2645 1.79784 32.2022C2.73552 33.1399 4.00729 33.6667 5.33337 33.6667H28.6667C29.9928 33.6667 31.2646 33.1399 32.2022 32.2022C33.1399 31.2645 33.6667 29.9928 33.6667 28.6667V5.33334C33.6667 4.00726 33.1399 2.73549 32.2022 1.79781C31.2646 0.860128 29.9928 0.333344 28.6667 0.333344ZM30.3334 28.6667C30.3334 29.1087 30.1578 29.5326 29.8452 29.8452C29.5327 30.1578 29.1087 30.3333 28.6667 30.3333H5.33337C4.89135 30.3333 4.46742 30.1578 4.15486 29.8452C3.8423 29.5326 3.66671 29.1087 3.66671 28.6667V5.33334C3.66671 4.89132 3.8423 4.46739 4.15486 4.15483C4.46742 3.84227 4.89135 3.66668 5.33337 3.66668H28.6667C29.1087 3.66668 29.5327 3.84227 29.8452 4.15483C30.1578 4.46739 30.3334 4.89132 30.3334 5.33334V28.6667Z" fill="white"/>
</svg>
