<svg width="33" height="33" viewBox="0 0 33 33" fill="none" xmlns="http://www.w3.org/2000/svg">
<circle cx="16.5" cy="16.5" r="16" stroke="#3F64AB"/>
<path d="M11 24.3693V10.5L12.5 9H21L22 10.5L21.8568 24.3693L16.5 21.5L11 24.3693Z" fill="#3F64AB" stroke="#3F64AB"/>
<path d="M10 10.25C10 9.65329 10.2283 9.08098 10.6346 8.65902C11.0409 8.23706 11.592 8 12.1667 8H20.8333C21.408 8 21.9591 8.23706 22.3654 8.65902C22.7717 9.08098 23 9.65329 23 10.25V25.4378C22.9999 25.5395 22.9733 25.6394 22.923 25.7266C22.8726 25.8139 22.8004 25.8854 22.714 25.9334C22.6276 25.9814 22.5303 26.0042 22.4325 25.9994C22.3346 25.9945 22.2398 25.9622 22.1582 25.9058L16.5 22.7389L10.8417 25.9058C10.7602 25.9622 10.6654 25.9945 10.5675 25.9994C10.4697 26.0042 10.3724 25.9814 10.286 25.9334C10.1996 25.8854 10.1274 25.8139 10.077 25.7266C10.0267 25.6394 10.0001 25.5395 10 25.4378V10.25ZM12.1667 9.12502C11.8793 9.12502 11.6038 9.24355 11.4006 9.45453C11.1975 9.66551 11.0833 9.95166 11.0833 10.25V24.387L16.1999 21.5947C16.2888 21.5333 16.3932 21.5005 16.5 21.5005C16.6068 21.5005 16.7112 21.5333 16.8001 21.5947L21.9167 24.387V10.25C21.9167 9.95166 21.8025 9.66551 21.5994 9.45453C21.3962 9.24355 21.1207 9.12502 20.8333 9.12502H12.1667Z" fill="#3F64AB"/>
</svg>
