<svg width="42" height="70" viewBox="0 0 42 70" fill="none" xmlns="http://www.w3.org/2000/svg">
<path d="M33 0.350273H9.00001C6.61307 0.350273 4.32389 1.4405 2.63606 3.38112C0.948234 5.32173 2.36487e-05 7.95377 2.36487e-05 10.6982V65.8872C-0.00207505 66.495 0.135547 67.0927 0.398957 67.6197C0.662367 68.1467 1.04221 68.5843 1.50002 68.8882C1.95608 69.1909 2.47341 69.3503 3.00002 69.3503C3.52663 69.3503 4.04396 69.1909 4.50002 68.8882L21 57.9193L37.5 68.8882C37.9572 69.1861 38.4744 69.3407 39 69.3366C39.5255 69.3407 40.0428 69.1861 40.5 68.8882C40.9578 68.5843 41.3376 68.1467 41.601 67.6197C41.8644 67.0927 42.0021 66.495 42 65.8872V10.6982C42 7.95377 41.0518 5.32173 39.3639 3.38112C37.6761 1.4405 35.3869 0.350273 33 0.350273ZM36 59.9199L22.5 50.9517C22.0439 50.649 21.5266 50.4896 21 50.4896C20.4734 50.4896 19.9561 50.649 19.5 50.9517L6.00002 59.9199V10.6982C6.00002 9.7834 6.31609 8.90606 6.8787 8.25918C7.4413 7.61231 8.20436 7.2489 9.00001 7.2489H33C33.7956 7.2489 34.5587 7.61231 35.1213 8.25918C35.6839 8.90606 36 9.7834 36 10.6982V59.9199Z" fill="#6C7281"/>
</svg>
