<svg width="42" height="69" viewBox="0 0 42 69" fill="none" xmlns="http://www.w3.org/2000/svg">
<path d="M33 0H9.00001C6.61307 0 4.32389 1.09023 2.63606 3.03084C0.948234 4.97146 2.36487e-05 7.6035 2.36487e-05 10.3479V65.537C-0.00207505 66.1448 0.135547 66.7424 0.398957 67.2694C0.662367 67.7964 1.04221 68.234 1.50002 68.5379C1.95608 68.8406 2.47341 69 3.00002 69C3.52663 69 4.04396 68.8406 4.50002 68.5379L21 57.5691L37.5 68.5379C37.9572 68.8358 38.4744 68.9905 39 68.9863C39.5255 68.9905 40.0428 68.8358 40.5 68.5379C40.9578 68.234 41.3376 67.7964 41.601 67.2694C41.8644 66.7424 42.0021 66.1448 42 65.537V10.3479C42 7.6035 41.0518 4.97146 39.3639 3.03084C37.6761 1.09023 35.3869 0 33 0ZM36 59.5697L22.5 50.6014C22.0439 50.2987 21.5266 50.1393 21 50.1393C20.4734 50.1393 19.9561 50.2987 19.5 50.6014L6.00002 59.5697V10.3479C6.00002 9.43313 6.31609 8.55578 6.8787 7.90891C7.4413 7.26204 8.20436 6.89863 9.00001 6.89863H33C33.7956 6.89863 34.5587 7.26204 35.1213 7.90891C35.6839 8.55578 36 9.43313 36 10.3479V59.5697Z" fill="#3F64AB"/>
<path d="M5.00001 3H37V54.853L38.8944 56.1877L34.568 61.7547L28 57.1271L28.6266 56.3209H11.5279L12.8944 58.079L6.32664 62.7069L2 57.1401L5.00001 55.0262V3Z" fill="#3F64AB"/>
</svg>
