<svg width="19" height="21" viewBox="0 0 19 21" fill="none" xmlns="http://www.w3.org/2000/svg">
<path d="M12.0085 0.821314L18.006 6.81881C18.0601 6.87659 18.106 6.94134 18.1427 7.01129V7.05703V7.08805L18.1526 7.11745C18.1767 7.18917 18.1935 7.26315 18.2027 7.33824V7.33829V7.3386V7.3389V7.33921V7.33951V7.33981V7.34011V7.34041V7.3407V7.341V7.34129V7.34159V7.34188V7.34217V7.34246V7.34275V7.34303V7.34332V7.3436V7.34389V7.34417V7.34445V7.34473V7.34501V7.34529V7.34556V7.34584V7.34611V7.34638V7.34665V7.34692V7.34719V7.34746V7.34772V7.34799V7.34825V7.34852V7.34878V7.34904V7.3493V7.34956V7.34981V7.35007V7.35032V7.35058V7.35083V7.35108V7.35133V7.35158V7.35182V7.35207V7.35232V7.35256V7.3528V7.35304V7.35329V7.35352V7.35376V7.354V7.35424V7.35447V7.3547V7.35494V7.35517V7.3554V7.35563V7.35586V7.35608V7.35631V7.35654V7.35676V7.35698V7.3572V7.35742V7.35764V7.35786V7.35808V7.3583V7.35851V7.35873V7.35894V7.35915V7.35936V7.35957V7.35978V7.35999V7.36019V7.3604V7.3606V7.36081V7.36101V7.36121V7.36141V7.36161V7.36181V7.36201V7.3622V7.3624V7.36259V7.36279V7.36298V7.36317V7.36336V7.36355V7.36374V7.36392V7.36411V7.3643V7.36448V7.36466V7.36484V7.36503V7.36521V7.36539V7.36556V7.36574V7.36592V7.36609V7.36627V7.36644V7.36661V7.36678V7.36695V7.36712V7.36729V7.36746V7.36763V7.36779V7.36796V7.36812V7.36828V7.36845V7.36861V7.36877V7.36893V7.36909V7.36924V7.3694V7.36955V7.36971V7.36986V7.37002V7.37017V7.37032V7.37047V7.37062V7.37077V7.37091V7.37106V7.37121V7.37135V7.37149V7.37164V7.37178V7.37192V7.37206V7.3722V7.37234V7.37248V7.37261V7.37275V7.37289V7.37302V7.37315V7.37329V7.37342V7.37355V7.37368V7.37381V7.37394V7.37406V7.37419V7.37432V7.37444V7.37457V7.37469V7.37481V7.37494V7.37506V7.37518V7.3753V7.37542V7.37553V7.37565V7.37577V7.37588V7.376V7.37611V7.37622V7.37634V7.37645V7.37656V7.37667V7.37678V7.37689V7.377V7.3771V7.37721V7.37731V7.37742V7.37752V7.37763V7.37773V7.37783V7.37793V7.37803V7.37813V7.37823V7.37833V7.37843V7.37852V7.37862V7.37871V7.37881V7.3789V7.379V7.37909V7.37918V7.37927V7.37936V7.37945V7.37954V7.37963V7.37972V7.3798V7.37989V7.37997V7.38006V7.38014V7.38023V7.38031V7.38039V7.38047V7.38055V7.38063V7.38071V7.38079V7.38087V7.38095V7.38103V7.3811V7.38118V7.38125V7.38133V7.3814V7.38147V7.38155V7.38162V7.38169V7.38176V7.38183V7.3819V7.38197V7.38204V7.3821V7.38217V7.38224V7.3823V7.38237V7.38243V7.3825V7.38256V7.38262V7.38269V7.38275V7.38281V7.38287V7.38293V7.38299V7.38305V7.38311V7.38316V7.38322V7.38328V7.38333V7.38339V7.38344V7.3835V7.38355V7.38361V7.38366V7.38371V7.38376V7.38381V7.38387V7.38392V7.38397V7.38401V7.38406V7.38411V7.38416V7.38421V7.38425V7.3843V7.38434V7.38439V7.38443V7.38448V7.38452V7.38457V7.38461V7.38465V7.38469V7.38473V7.38477V7.38481V7.38485V7.38489V7.38493V7.38497V7.38501V7.38505V7.38508V7.38512V7.38516V7.38519V7.38523V7.38526V7.3853V7.38533V7.38537V7.3854V7.38543V7.38547V7.3855V7.38553V7.38556V7.38559V7.38562V7.38565V7.38568V7.38571V7.38574V7.38577V7.3858V7.38582V7.38585V7.38588V7.3859V7.38593V7.38595V7.38598V7.38601V7.38603V7.38605V7.38608V7.3861V7.38613V7.38615V7.38617V7.38619V7.38621V7.38624V7.38626V7.38628V7.3863V7.38632V7.38634V7.38636V7.38638V7.3864V7.38641V7.38643V7.38645V7.38647V7.38649V7.3865V7.38652V7.38654V7.38655V7.38657V7.38658V7.3866V7.38661V7.38663V7.38664V7.38666V7.38668V7.38671V7.38673V7.38676V7.38678V7.3868V7.38683V7.38685V7.38687V7.38688V7.3869V7.38692V7.38693V7.38695V7.38696V7.38698V7.387V7.38702V7.38703V7.38705V7.38707V7.38708V7.3871V7.38711V7.38713V13.3889C18.2027 14.1345 17.9065 14.8496 17.3793 15.3768C16.8521 15.9041 16.137 16.2002 15.3914 16.2002H14.3911H14.2016V16.3898V17.3901C14.2016 18.1357 13.9054 18.8508 13.3781 19.378C12.8509 19.9052 12.1358 20.2014 11.3902 20.2014H3.38785C2.64223 20.2014 1.92715 19.9052 1.39992 19.378C0.872688 18.8508 0.576492 18.1357 0.576492 17.3901V7.38713C0.576492 6.64151 0.872688 5.92643 1.39992 5.3992C1.92715 4.87197 2.64223 4.57578 3.38785 4.57578H4.38814H4.57767V4.38625V3.38595C4.57767 2.64034 4.87386 1.92526 5.4011 1.39803C5.92833 0.870796 6.6434 0.5746 7.38902 0.5746H11.4279C11.5152 0.58679 11.5995 0.615602 11.676 0.659514L11.7325 0.691905L11.797 0.682749C11.8013 0.682128 11.8057 0.68173 11.8101 0.681555C11.8824 0.71874 11.9491 0.765762 12.0085 0.821314ZM12.5245 3.66206L12.201 3.33851V3.79607V5.38654C12.201 5.7021 12.3263 6.00474 12.5495 6.22787C12.7726 6.45101 13.0752 6.57637 13.3908 6.57637H14.9813H15.4388L15.1153 6.25282L12.5245 3.66206ZM4.57767 6.38684V6.19731H4.38814H3.38785C3.07228 6.19731 2.76965 6.32266 2.54651 6.5458C2.32338 6.76893 2.19802 7.07157 2.19802 7.38713V17.3901C2.19802 17.7056 2.32338 18.0083 2.54651 18.2314C2.76965 18.4545 3.07228 18.5799 3.38785 18.5799H11.3902C11.7058 18.5799 12.0084 18.4545 12.2315 18.2314C12.4547 18.0083 12.58 17.7056 12.58 17.3901V16.3898V16.2002H12.3905H7.38902C6.6434 16.2002 5.92833 15.9041 5.4011 15.3768C4.87386 14.8496 4.57767 14.1345 4.57767 13.3889V6.38684ZM10.5794 2.38566V2.19613H10.3899H7.38902C7.07346 2.19613 6.77083 2.32149 6.54769 2.54462C6.32455 2.76776 6.1992 3.07039 6.1992 3.38595V13.3889C6.1992 13.7045 6.32455 14.0071 6.54769 14.2302C6.77083 14.4534 7.07346 14.5787 7.38902 14.5787H15.3914C15.7069 14.5787 16.0096 14.4534 16.2327 14.2302C16.4558 14.0071 16.5812 13.7045 16.5812 13.3889V8.38742V8.1979H16.3917H13.3908C12.6452 8.1979 11.9301 7.9017 11.4029 7.37447C10.8756 6.84724 10.5794 6.13216 10.5794 5.38654V2.38566Z" fill="white" stroke="#2D2D2D" stroke-width="0.379059"/>
</svg>
