<svg width="24" height="24" viewBox="0 0 24 24" fill="none" xmlns="http://www.w3.org/2000/svg">
<path d="M21.15 2.86025C20.768 2.47082 20.2835 2.19747 19.7526 2.07183C19.2217 1.94619 18.6661 1.97338 18.15 2.15025L4.00005 6.88025C3.42936 7.06705 2.93074 7.4264 2.573 7.90869C2.21527 8.39098 2.01607 8.97242 2.0029 9.57276C1.98973 10.1731 2.16324 10.7627 2.49948 11.2602C2.83572 11.7577 3.31811 12.1386 3.88005 12.3503L9.12005 14.3503C9.23937 14.3959 9.34801 14.4656 9.43919 14.5551C9.53038 14.6445 9.60216 14.7518 9.65005 14.8703L11.65 20.1203C11.8536 20.6742 12.2231 21.152 12.708 21.4884C13.193 21.8248 13.7698 22.0036 14.36 22.0003H14.43C15.0311 21.9893 15.6136 21.7906 16.096 21.4319C16.5784 21.0733 16.9365 20.5727 17.1201 20.0003L21.85 5.83025C22.0221 5.31919 22.0477 4.7702 21.924 4.24534C21.8003 3.72048 21.5322 3.24071 21.15 2.86025ZM20 5.20025L15.22 19.3803C15.1645 19.5597 15.0531 19.7167 14.9019 19.8283C14.7508 19.9398 14.5679 20.0001 14.38 20.0003C14.1933 20.0033 14.01 19.9495 13.8546 19.8459C13.6992 19.7423 13.579 19.5938 13.51 19.4203L11.51 14.1703C11.3651 13.7888 11.1414 13.4421 10.8537 13.1526C10.566 12.8632 10.2207 12.6375 9.84005 12.4903L4.59005 10.4903C4.41294 10.4254 4.2607 10.3065 4.15483 10.1503C4.04896 9.99423 3.99482 9.8088 4.00005 9.62025C4.0002 9.4324 4.06047 9.24952 4.17202 9.09838C4.28358 8.94724 4.44058 8.83576 4.62005 8.78025L18.8 4.05025C18.9629 3.9839 19.1414 3.96613 19.3141 3.99908C19.4868 4.03203 19.6462 4.1143 19.7731 4.23594C19.9001 4.35758 19.989 4.51338 20.0293 4.68451C20.0696 4.85565 20.0594 5.03478 20 5.20025Z" fill="white"/>
</svg>
