<svg width="30" height="50" viewBox="0 0 30 50" fill="none" xmlns="http://www.w3.org/2000/svg">
<path d="M20 22.5H10C8.67392 22.5 7.40215 21.9732 6.46447 21.0355C5.52679 20.0979 5 18.8261 5 17.5C5 16.1739 5.52679 14.9021 6.46447 13.9645C7.40215 13.0268 8.67392 12.5 10 12.5H22.5C23.163 12.5 23.7989 12.7634 24.2678 13.2322C24.7366 13.7011 25 14.337 25 15C25 15.663 25.2634 16.2989 25.7322 16.7678C26.2011 17.2366 26.837 17.5 27.5 17.5C28.163 17.5 28.7989 17.2366 29.2678 16.7678C29.7366 16.2989 30 15.663 30 15C30 13.0109 29.2098 11.1032 27.8033 9.6967C26.3968 8.29018 24.4891 7.5 22.5 7.5H17.5V2.5C17.5 1.83696 17.2366 1.20107 16.7678 0.732233C16.2989 0.263392 15.663 0 15 0C14.337 0 13.7011 0.263392 13.2322 0.732233C12.7634 1.20107 12.5 1.83696 12.5 2.5V7.5H10C7.34784 7.5 4.8043 8.55357 2.92893 10.4289C1.05357 12.3043 0 14.8478 0 17.5C0 20.1522 1.05357 22.6957 2.92893 24.5711C4.8043 26.4464 7.34784 27.5 10 27.5H20C21.3261 27.5 22.5979 28.0268 23.5355 28.9645C24.4732 29.9021 25 31.1739 25 32.5C25 33.8261 24.4732 35.0979 23.5355 36.0355C22.5979 36.9732 21.3261 37.5 20 37.5H7.5C6.83696 37.5 6.20107 37.2366 5.73223 36.7678C5.26339 36.2989 5 35.663 5 35C5 34.337 4.73661 33.7011 4.26777 33.2322C3.79893 32.7634 3.16304 32.5 2.5 32.5C1.83696 32.5 1.20107 32.7634 0.732234 33.2322C0.263393 33.7011 0 34.337 0 35C0 36.9891 0.790177 38.8968 2.1967 40.3033C3.60322 41.7098 5.51088 42.5 7.5 42.5H12.5V47.5C12.5 48.163 12.7634 48.7989 13.2322 49.2678C13.7011 49.7366 14.337 50 15 50C15.663 50 16.2989 49.7366 16.7678 49.2678C17.2366 48.7989 17.5 48.163 17.5 47.5V42.5H20C22.6522 42.5 25.1957 41.4464 27.0711 39.5711C28.9464 37.6957 30 35.1522 30 32.5C30 29.8478 28.9464 27.3043 27.0711 25.4289C25.1957 23.5536 22.6522 22.5 20 22.5V22.5Z" fill="#798CBC"/>
</svg>
