<svg width="50" height="45" viewBox="0 0 50 45" fill="none" xmlns="http://www.w3.org/2000/svg">
<path d="M43.1818 18.8976C42.5791 18.8976 42.001 19.1465 41.5748 19.5895C41.1485 20.0325 40.9091 20.6333 40.9091 21.2598V37.7953C40.9091 38.4218 40.6696 39.0226 40.2434 39.4656C39.8172 39.9086 39.2391 40.1575 38.6364 40.1575H6.81818C6.21542 40.1575 5.63734 39.9086 5.21112 39.4656C4.7849 39.0226 4.54545 38.4218 4.54545 37.7953V18.8976C4.54545 18.2711 4.7849 17.6703 5.21112 17.2273C5.63734 16.7843 6.21542 16.5354 6.81818 16.5354H11.3636C11.8592 16.5623 12.3497 16.4199 12.7601 16.1298C13.1705 15.8398 13.4782 15.4181 13.6364 14.9291L14.8636 11.0551C15.0161 10.5859 15.3066 10.1784 15.694 9.89018C16.0815 9.60193 16.5463 9.44754 17.0227 9.44882H29.5455C30.1482 9.44882 30.7263 9.19994 31.1525 8.75694C31.5787 8.31395 31.8182 7.71311 31.8182 7.08661C31.8182 6.46012 31.5787 5.85928 31.1525 5.41628C30.7263 4.97328 30.1482 4.72441 29.5455 4.72441H16.9091C15.4808 4.72719 14.0894 5.1961 12.9313 6.06497C11.7732 6.93384 10.9068 8.15879 10.4545 9.56693L9.72727 11.9291H6.81818C5.00989 11.9291 3.27566 12.6758 1.997 14.0048C0.718342 15.3338 0 17.1363 0 19.0157V37.9134C0 39.7929 0.718342 41.5954 1.997 42.9244C3.27566 44.2534 5.00989 45 6.81818 45H38.6364C40.4447 45 42.1789 44.2534 43.4575 42.9244C44.7362 41.5954 45.4545 39.7929 45.4545 37.9134V21.378C45.47 21.058 45.4226 20.738 45.3153 20.4377C45.208 20.1373 45.043 19.8627 44.8304 19.6307C44.6178 19.3987 44.362 19.2141 44.0786 19.0881C43.7952 18.962 43.4901 18.8972 43.1818 18.8976V18.8976ZM22.7273 16.5354C20.9293 16.5354 19.1716 17.0896 17.6766 18.1278C16.1816 19.1661 15.0164 20.6418 14.3284 22.3683C13.6403 24.0949 13.4603 25.9947 13.811 27.8276C14.1618 29.6605 15.0276 31.3441 16.299 32.6656C17.5704 33.987 19.1903 34.8869 20.9537 35.2515C22.7172 35.6161 24.5451 35.429 26.2062 34.7138C27.8674 33.9987 29.2872 32.7876 30.2861 31.2337C31.285 29.6799 31.8182 27.8531 31.8182 25.9843C31.8182 23.4783 30.8604 21.0749 29.1555 19.3029C27.4506 17.5309 25.1383 16.5354 22.7273 16.5354V16.5354ZM22.7273 30.7087C21.8283 30.7087 20.9494 30.4316 20.202 29.9125C19.4545 29.3933 18.8719 28.6555 18.5278 27.7922C18.1838 26.9289 18.0938 25.979 18.2692 25.0626C18.4445 24.1461 18.8775 23.3043 19.5132 22.6436C20.1488 21.9829 20.9588 21.5329 21.8405 21.3506C22.7222 21.1683 23.6362 21.2619 24.4667 21.6195C25.2973 21.977 26.0072 22.5826 26.5067 23.3595C27.0061 24.1364 27.2727 25.0499 27.2727 25.9843C27.2727 27.2372 26.7938 28.4389 25.9414 29.3249C25.089 30.2109 23.9328 30.7087 22.7273 30.7087ZM47.7273 4.72441H45.4545V2.3622C45.4545 1.73571 45.2151 1.13487 44.7889 0.691874C44.3627 0.248874 43.7846 0 43.1818 0C42.5791 0 42.001 0.248874 41.5748 0.691874C41.1485 1.13487 40.9091 1.73571 40.9091 2.3622V4.72441H38.6364C38.0336 4.72441 37.4555 4.97328 37.0293 5.41628C36.6031 5.85928 36.3636 6.46012 36.3636 7.08661C36.3636 7.71311 36.6031 8.31395 37.0293 8.75694C37.4555 9.19994 38.0336 9.44882 38.6364 9.44882H40.9091V11.811C40.9091 12.4375 41.1485 13.0384 41.5748 13.4814C42.001 13.9244 42.5791 14.1732 43.1818 14.1732C43.7846 14.1732 44.3627 13.9244 44.7889 13.4814C45.2151 13.0384 45.4545 12.4375 45.4545 11.811V9.44882H47.7273C48.33 9.44882 48.9081 9.19994 49.3343 8.75694C49.7606 8.31395 50 7.71311 50 7.08661C50 6.46012 49.7606 5.85928 49.3343 5.41628C48.9081 4.97328 48.33 4.72441 47.7273 4.72441Z" fill="white"/>
</svg>
