<svg width="50" height="50" viewBox="0 0 50 50" fill="none" xmlns="http://www.w3.org/2000/svg">
<path d="M7.5 40.0029H18.1C18.429 40.0048 18.7552 39.9418 19.0598 39.8174C19.3644 39.693 19.6414 39.5097 19.875 39.2781L37.175 21.9581L44.275 15.0101C44.5093 14.7778 44.6953 14.5014 44.8222 14.1968C44.9492 13.8923 45.0145 13.5656 45.0145 13.2357C45.0145 12.9057 44.9492 12.5791 44.8222 12.2745C44.6953 11.9699 44.5093 11.6935 44.275 11.4612L33.675 0.739281C33.4426 0.505028 33.1661 0.319096 32.8614 0.192212C32.5568 0.0653267 32.23 0 31.9 0C31.57 0 31.2432 0.0653267 30.9386 0.192212C30.6339 0.319096 30.3574 0.505028 30.125 0.739281L23.075 7.81223L5.725 25.1322C5.4933 25.3657 5.30998 25.6427 5.18557 25.9472C5.06116 26.2517 4.9981 26.5778 5 26.9067V37.5036C5 38.1665 5.26339 38.8022 5.73223 39.2709C6.20107 39.7396 6.83696 40.0029 7.5 40.0029ZM31.9 6.03775L38.975 13.1107L35.425 16.6597L28.35 9.58672L31.9 6.03775ZM10 27.9314L24.825 13.1107L31.9 20.1836L17.075 35.0043H10V27.9314ZM47.5 45.0014H2.5C1.83696 45.0014 1.20107 45.2648 0.732233 45.7335C0.263392 46.2022 0 46.8379 0 47.5007C0 48.1636 0.263392 48.7993 0.732233 49.268C1.20107 49.7367 1.83696 50 2.5 50H47.5C48.163 50 48.7989 49.7367 49.2678 49.268C49.7366 48.7993 50 48.1636 50 47.5007C50 46.8379 49.7366 46.2022 49.2678 45.7335C48.7989 45.2648 48.163 45.0014 47.5 45.0014Z" fill="white"/>
</svg>
