<svg width="34" height="35" viewBox="0 0 34 35" fill="none" xmlns="http://www.w3.org/2000/svg">
<path d="M28.3333 16.6013C27.8913 16.6013 27.4674 16.7769 27.1548 17.0895C26.8423 17.402 26.6667 17.826 26.6667 18.268V22.2513L24.1667 19.7847C23.2883 18.9413 22.1177 18.4703 20.9 18.4703C19.6823 18.4703 18.5117 18.9413 17.6333 19.7847L16.4667 20.9513L12.3167 16.8013C11.4485 15.9383 10.2741 15.4538 9.05 15.4538C7.82586 15.4538 6.65146 15.9383 5.78333 16.8013L3.33333 19.2847V9.93465C3.33333 9.49263 3.50893 9.0687 3.82149 8.75614C4.13405 8.44358 4.55797 8.26799 5 8.26799H15C15.442 8.26799 15.866 8.09239 16.1785 7.77983C16.4911 7.46727 16.6667 7.04335 16.6667 6.60132C16.6667 6.15929 16.4911 5.73537 16.1785 5.42281C15.866 5.11025 15.442 4.93465 15 4.93465H5C3.67392 4.93465 2.40215 5.46144 1.46447 6.39912C0.526784 7.3368 0 8.60857 0 9.93465V29.9347C0 31.2607 0.526784 32.5325 1.46447 33.4702C2.40215 34.4079 3.67392 34.9347 5 34.9347H25C26.3261 34.9347 27.5979 34.4079 28.5355 33.4702C29.4732 32.5325 30 31.2607 30 29.9347V18.268C30 17.826 29.8244 17.402 29.5118 17.0895C29.1993 16.7769 28.7754 16.6013 28.3333 16.6013ZM5 31.6013C4.55797 31.6013 4.13405 31.4257 3.82149 31.1132C3.50893 30.8006 3.33333 30.3767 3.33333 29.9347V24.0013L8.13333 19.1347C8.25452 19.0097 8.39959 18.9103 8.55991 18.8424C8.72024 18.7745 8.89257 18.7396 9.06667 18.7396C9.24077 18.7396 9.41309 18.7745 9.57342 18.8424C9.73375 18.9103 9.87881 19.0097 10 19.1347L15.2833 24.418L22.3833 31.518L5 31.6013ZM26.6667 29.9347C26.6609 30.2557 26.5625 30.5682 26.3833 30.8347L18.8167 23.3013L19.9833 22.1513C20.2269 21.9091 20.5565 21.7731 20.9 21.7731C21.2435 21.7731 21.5731 21.9091 21.8167 22.1513L26.6667 26.968V29.9347ZM32.8667 4.51799L28.8333 0.484654C28.5211 0.174236 28.0986 0 27.6583 0C27.218 0 26.7956 0.174236 26.4833 0.484654L18.85 8.11799C18.6895 8.27095 18.5611 8.4544 18.4724 8.65759C18.3837 8.86078 18.3364 9.07963 18.3333 9.30132V13.3347C18.3333 13.7767 18.5089 14.2006 18.8215 14.5132C19.1341 14.8257 19.558 15.0013 20 15.0013H24.0333C24.4706 14.9995 24.8896 14.8259 25.2 14.518L32.8333 6.88465C32.9918 6.73193 33.1184 6.54934 33.2058 6.34743C33.2933 6.14553 33.34 5.92829 33.3431 5.70827C33.3462 5.48824 33.3057 5.26978 33.2239 5.06549C33.1421 4.86119 33.0207 4.67512 32.8667 4.51799V4.51799ZM23.3333 11.668H21.6667V10.0013L27.6667 4.01799L29.3333 5.68465L23.3333 11.668Z" fill="white"/>
</svg>
