<svg width="48" height="50" viewBox="0 0 48 50" fill="none" xmlns="http://www.w3.org/2000/svg">
<path fill-rule="evenodd" clip-rule="evenodd" d="M25.1863 22.5H29C31.6521 22.5 34.1957 23.5536 36.071 25.4289C37.6904 27.0483 38.697 29.1659 38.9417 31.4214L46.7926 36.5133C47.9974 37.2947 48.3406 38.9047 47.5592 40.1095C46.7778 41.3142 45.1678 41.6574 43.9631 40.8761L37.9441 36.9723C37.4679 37.9249 36.8382 38.8039 36.071 39.5711C34.1957 41.4464 31.6521 42.5 29 42.5H26.5V47.5C26.5 48.163 26.2366 48.7989 25.7677 49.2678C25.2989 49.7366 24.663 50 24 50C23.3369 50 22.701 49.7366 22.2322 49.2678C21.7634 48.7989 21.5 48.163 21.5 47.5V42.5H16.5C14.5108 42.5 12.6032 41.7098 11.1967 40.3033C9.79014 38.8968 8.99996 36.9891 8.99996 35C8.99996 34.337 9.26335 33.7011 9.73219 33.2322C10.201 32.7634 10.8369 32.5 11.5 32.5C12.163 32.5 12.7989 32.7634 13.2677 33.2322C13.7366 33.7011 14 34.337 14 35C14 35.663 14.2634 36.2989 14.7322 36.7678C15.201 37.2366 15.8369 37.5 16.5 37.5H29C30.326 37.5 31.5978 36.9732 32.5355 36.0355C33.055 35.5161 33.4483 34.894 33.6959 34.217L23.3393 27.5H19C16.3478 27.5 13.8043 26.4464 11.9289 24.5711C10.2231 22.8653 9.19726 20.6068 9.02564 18.2166L2.18136 13.7775C0.976616 12.9962 0.633404 11.3861 1.41477 10.1814C2.19613 8.97663 3.80618 8.63342 5.01092 9.41478L10.188 12.7725C10.6464 11.9179 11.2307 11.1271 11.9289 10.4289C13.8043 8.55357 16.3478 7.5 19 7.5H21.5V2.5C21.5 1.83696 21.7634 1.20107 22.2322 0.732233C22.701 0.263392 23.3369 0 24 0C24.663 0 25.2989 0.263392 25.7677 0.732233C26.2366 1.20107 26.5 1.83696 26.5 2.5V7.5H31.5C33.4891 7.5 35.3967 8.29018 36.8033 9.6967C38.2098 11.1032 39 13.0109 39 15C39 15.663 38.7366 16.2989 38.2677 16.7678C37.7989 17.2366 37.163 17.5 36.5 17.5C35.8369 17.5 35.201 17.2366 34.7322 16.7678C34.2633 16.2989 34 15.663 34 15C34 14.337 33.7366 13.7011 33.2677 13.2322C32.7989 12.7634 32.163 12.5 31.5 12.5H19C17.6739 12.5 16.4021 13.0268 15.4644 13.9645C15.015 14.4139 14.66 14.94 14.4121 15.5121L25.1863 22.5Z" fill="#798CBC"/>
</svg>
