<svg width="34" height="34" viewBox="0 0 34 34" fill="none" xmlns="http://www.w3.org/2000/svg">
<path d="M16.6667 0C12.394 0.012187 8.28915 1.66486 5.2 4.61667V1.66667C5.2 1.22464 5.02441 0.800716 4.71185 0.488155C4.39928 0.175595 3.97536 0 3.53333 0C3.09131 0 2.66738 0.175595 2.35482 0.488155C2.04226 0.800716 1.86667 1.22464 1.86667 1.66667V9.16667C1.86667 9.60869 2.04226 10.0326 2.35482 10.3452C2.66738 10.6577 3.09131 10.8333 3.53333 10.8333H11.0333C11.4754 10.8333 11.8993 10.6577 12.2118 10.3452C12.5244 10.0326 12.7 9.60869 12.7 9.16667C12.7 8.72464 12.5244 8.30072 12.2118 7.98816C11.8993 7.6756 11.4754 7.5 11.0333 7.5H7.03333C9.1763 5.2606 12.0325 3.83776 15.1109 3.47612C18.1893 3.11447 21.2975 3.83663 23.9011 5.51841C26.5047 7.20019 28.4411 9.73652 29.3772 12.6913C30.3134 15.6461 30.1908 18.8348 29.0307 21.709C27.8705 24.5832 25.7453 26.9635 23.0203 28.4405C20.2953 29.9175 17.1408 30.399 14.0993 29.8022C11.0577 29.2054 8.31911 27.5676 6.35432 25.1703C4.38953 22.7731 3.32131 19.7662 3.33333 16.6667C3.33333 16.2246 3.15774 15.8007 2.84518 15.4882C2.53262 15.1756 2.10869 15 1.66667 15C1.22464 15 0.800716 15.1756 0.488155 15.4882C0.175595 15.8007 0 16.2246 0 16.6667C0 19.963 0.977483 23.1854 2.80884 25.9262C4.6402 28.667 7.24317 30.8032 10.2886 32.0647C13.334 33.3261 16.6852 33.6562 19.9182 33.0131C23.1512 32.37 26.1209 30.7827 28.4518 28.4518C30.7827 26.1209 32.37 23.1512 33.0131 19.9182C33.6562 16.6852 33.3261 13.334 32.0647 10.2886C30.8032 7.24317 28.667 4.6402 25.9262 2.80884C23.1854 0.977483 19.963 0 16.6667 0ZM16.6667 10C16.2246 10 15.8007 10.1756 15.4882 10.4882C15.1756 10.8007 15 11.2246 15 11.6667V16.6667C15 17.1087 15.1756 17.5326 15.4882 17.8452C15.8007 18.1577 16.2246 18.3333 16.6667 18.3333H20C20.442 18.3333 20.866 18.1577 21.1785 17.8452C21.4911 17.5326 21.6667 17.1087 21.6667 16.6667C21.6667 16.2246 21.4911 15.8007 21.1785 15.4882C20.866 15.1756 20.442 15 20 15H18.3333V11.6667C18.3333 11.2246 18.1577 10.8007 17.8452 10.4882C17.5326 10.1756 17.1087 10 16.6667 10Z" fill="white"/>
</svg>
