<svg width="45" height="50" viewBox="0 0 45 50" fill="none" xmlns="http://www.w3.org/2000/svg">
<path fill-rule="evenodd" clip-rule="evenodd" d="M42.75 25.005H36V2.50944C36.0016 2.069 35.8984 1.63592 35.7008 1.25405C35.5033 0.872184 35.2184 0.555087 34.875 0.33487C34.533 0.115493 34.145 0 33.75 0C33.3551 0 32.9671 0.115493 32.625 0.33487L25.875 4.63402L19.125 0.33487C18.783 0.115493 18.395 0 18 0C17.6051 0 17.2171 0.115493 16.875 0.33487L10.125 4.63402L3.37503 0.33487C3.03299 0.115493 2.64499 0 2.25003 0C1.85508 0 1.46708 0.115493 1.12503 0.33487C0.781673 0.555087 0.496791 0.872184 0.299234 1.25405C0.101677 1.63592 -0.00154088 2.069 3.31412e-05 2.50944V42.5015C3.31412e-05 44.4902 0.711192 46.3975 1.97706 47.8037C3.24293 49.21 4.95982 50 6.75003 50H38.25C40.0402 50 41.7571 49.21 43.023 47.8037C44.2889 46.3975 45 44.4902 45 42.5015V27.5045C45 26.8416 44.763 26.2058 44.341 25.7371C43.9191 25.2683 43.3468 25.005 42.75 25.005ZM6.75003 45.001C6.15329 45.001 5.581 44.7377 5.15904 44.2689C4.73708 43.8002 4.50003 43.1644 4.50003 42.5015V6.83358L9.00003 9.68301C9.34729 9.8845 9.73326 9.98973 10.125 9.98973C10.5168 9.98973 10.9028 9.8845 11.25 9.68301L18 5.38387L24.75 9.68301C25.0973 9.8845 25.4832 9.98973 25.875 9.98973C26.2668 9.98973 26.6528 9.8845 27 9.68301L31.5 6.83358V42.5015C31.5061 43.3542 31.6431 44.1995 31.905 45.001H6.75003ZM40.5 42.5015C40.5 43.1644 40.263 43.8002 39.841 44.2689C39.4191 44.7377 38.8468 45.001 38.25 45.001C37.6533 45.001 37.081 44.7377 36.659 44.2689C36.2371 43.8002 36 43.1644 36 42.5015V30.004H40.5V42.5015ZM13.8787 24.2006C14.4413 24.7445 15.2044 25.05 16 25.05H22C23.5913 25.05 25.1174 25.6611 26.2427 26.7488C27.3679 27.8365 28 29.3117 28 30.85C28 32.3883 27.3679 33.8635 26.2427 34.9512C25.1174 36.0389 23.5913 36.65 22 36.65H20.5V39.55C20.5 39.9346 20.342 40.3034 20.0607 40.5753C19.7794 40.8472 19.3978 41 19 41C18.6022 41 18.2207 40.8472 17.9394 40.5753C17.6581 40.3034 17.5 39.9346 17.5 39.55V36.65H14.5C13.3065 36.65 12.1619 36.1917 11.318 35.3759C10.4741 34.5601 10 33.4537 10 32.3C10 31.9154 10.1581 31.5466 10.4394 31.2747C10.7207 31.0028 11.1022 30.85 11.5 30.85C11.8978 30.85 12.2794 31.0028 12.5607 31.2747C12.842 31.5466 13 31.9154 13 32.3C13 32.6846 13.1581 33.0534 13.4394 33.3253C13.7207 33.5972 14.1022 33.75 14.5 33.75H22C22.7957 33.75 23.5587 33.4445 24.1213 32.9006C24.6839 32.3568 25 31.6191 25 30.85C25 30.0809 24.6839 29.3432 24.1213 28.7994C23.5587 28.2555 22.7957 27.95 22 27.95H16C14.4087 27.95 12.8826 27.3389 11.7574 26.2512C10.6322 25.1635 10 23.6883 10 22.15C10 20.6117 10.6322 19.1365 11.7574 18.0488C12.8826 16.9611 14.4087 16.35 16 16.35H17.5V13.45C17.5 13.0654 17.6581 12.6966 17.9394 12.4247C18.2207 12.1528 18.6022 12 19 12C19.3978 12 19.7794 12.1528 20.0607 12.4247C20.342 12.6966 20.5 13.0654 20.5 13.45V16.35H23.5C24.6935 16.35 25.8381 16.8083 26.682 17.6241C27.5259 18.4399 28 19.5463 28 20.7C28 21.0846 27.842 21.4534 27.5607 21.7253C27.2794 21.9972 26.8978 22.15 26.5 22.15C26.1022 22.15 25.7207 21.9972 25.4394 21.7253C25.158 21.4534 25 21.0846 25 20.7C25 20.3154 24.842 19.9466 24.5607 19.6747C24.2794 19.4028 23.8978 19.25 23.5 19.25H16C15.2044 19.25 14.4413 19.5555 13.8787 20.0994C13.3161 20.6432 13 21.3809 13 22.15C13 22.9191 13.3161 23.6568 13.8787 24.2006Z" fill="#798CBC"/>
</svg>
