<svg width="34" height="34" viewBox="0 0 34 34" fill="none" xmlns="http://www.w3.org/2000/svg">
<path d="M28.3333 16.6667H16.6667V5C16.6667 4 16 3.33333 15 3.33333C6.66667 3.33333 0 10 0 18.3333C0 26.6667 6.66667 33.3333 15 33.3333C23.3333 33.3333 30 26.6667 30 18.3333C30 17.3333 29.3333 16.6667 28.3333 16.6667ZM16.6667 29.8333C10.3333 30.8333 4.33333 26.3333 3.5 20C2.5 13.6667 7 7.66667 13.3333 6.83333V18.3333C13.3333 19.3333 14 20 15 20H26.5C25.8333 25.1667 21.8333 29.1667 16.6667 29.8333ZM21.6667 0C20.6667 0 20 0.666667 20 1.66667V11.6667C20 12.6667 20.6667 13.3333 21.6667 13.3333H31.6667C32.6667 13.3333 33.3333 12.6667 33.3333 11.6667C33.3333 5.16667 28.1667 0 21.6667 0ZM23.3333 10V3.5C26.6667 4.16667 29.1667 6.66667 29.8333 10H23.3333Z" fill="white"/>
</svg>
