<svg width="52" height="52" viewBox="0 0 52 52" fill="none" xmlns="http://www.w3.org/2000/svg">
<path d="M45.5 26.0036L45.5 26.0068C45.529 30.573 43.9649 35.0065 41.0768 38.5435C38.1888 42.0806 34.1578 44.4998 29.678 45.3846C25.1982 46.2694 20.5501 45.5643 16.5343 43.3908C12.5184 41.2173 9.38612 37.7115 7.67697 33.4771C5.96781 29.2427 5.78875 24.5448 7.17061 20.1926C8.55247 15.8404 11.4088 12.1063 15.2475 9.63343C19.0863 7.16055 23.6672 6.1037 28.2014 6.64491C32.3366 7.13849 36.1967 8.93309 39.2327 11.7536H34.45C33.6544 11.7536 32.8913 12.0697 32.3287 12.6323C31.7661 13.1949 31.45 13.958 31.45 14.7536C31.45 15.5493 31.7661 16.3124 32.3287 16.875C32.8913 17.4376 33.6544 17.7536 34.45 17.7536H45.775C46.5707 17.7536 47.3337 17.4376 47.8963 16.875C48.4589 16.3124 48.775 15.5493 48.775 14.7536V3.50366C48.775 2.70801 48.4589 1.94495 47.8963 1.38234C47.3337 0.819731 46.5707 0.503661 45.775 0.503661C44.9794 0.503661 44.2163 0.819731 43.6537 1.38234C43.0911 1.94495 42.775 2.70801 42.775 3.50366V6.79455C38.6538 3.19479 33.4745 1.00912 27.9992 0.578523C22.1426 0.117934 16.3065 1.69368 11.4776 5.03939C6.64859 8.3851 3.12296 13.2956 1.49662 18.9407C-0.129721 24.5858 0.242993 30.6194 2.55176 36.0214C4.86052 41.4235 8.96372 45.8627 14.1677 48.5886C19.3718 51.3146 25.3574 52.16 31.1129 50.9821C36.8683 49.8042 42.0405 46.6752 45.7552 42.1239C49.4699 37.5727 51.4991 31.8784 51.5 26.0037V26.0036C51.5 25.208 51.1839 24.4449 50.6213 23.8823C50.0587 23.3197 49.2956 23.0036 48.5 23.0036C47.7044 23.0036 46.9413 23.3197 46.3787 23.8823C45.8161 24.4449 45.5 25.208 45.5 26.0036Z" fill="#869ACE" stroke="#869ACE"/>
</svg>
