<svg width="34" height="34" viewBox="0 0 34 34" fill="none" xmlns="http://www.w3.org/2000/svg">
<path d="M32.5334 12.9166L29.3834 11.8666L30.8667 8.89992C31.0171 8.5894 31.0674 8.23987 31.0107 7.89955C30.9539 7.55923 30.793 7.2449 30.55 6.99992L27 3.44992C26.7538 3.2034 26.4364 3.04027 26.0926 2.98347C25.7488 2.92667 25.3959 2.97905 25.0834 3.13326L22.1167 4.61659L21.0667 1.46659C20.9558 1.13824 20.7453 0.852634 20.4645 0.649504C20.1837 0.446375 19.8466 0.335831 19.5 0.333258H14.5C14.1506 0.332356 13.8098 0.441289 13.5257 0.644661C13.2415 0.848033 13.0285 1.13556 12.9167 1.46659L11.8667 4.61659L8.90005 3.13326C8.58952 2.98289 8.23999 2.9326 7.89967 2.98932C7.55935 3.04604 7.24502 3.20697 7.00005 3.44992L3.45005 6.99992C3.20352 7.2462 3.04039 7.56355 2.98359 7.90735C2.92679 8.25115 2.97917 8.60411 3.13338 8.91659L4.61671 11.8833L1.46671 12.9333C1.13837 13.0442 0.852756 13.2546 0.649626 13.5354C0.446497 13.8162 0.335953 14.1534 0.33338 14.4999V19.4999C0.332478 19.8493 0.441411 20.1902 0.644783 20.4743C0.848155 20.7584 1.13568 20.9714 1.46671 21.0833L4.61671 22.1333L3.13338 25.0999C2.98301 25.4104 2.93272 25.76 2.98944 26.1003C3.04616 26.4406 3.2071 26.755 3.45005 26.9999L7.00005 30.5499C7.24632 30.7964 7.56367 30.9596 7.90747 31.0164C8.25127 31.0732 8.60423 31.0208 8.91671 30.8666L11.8834 29.3833L12.9334 32.5333C13.0452 32.8643 13.2582 33.1518 13.5423 33.3552C13.8265 33.5586 14.1673 33.6675 14.5167 33.6666H19.5167C19.8661 33.6675 20.207 33.5586 20.4911 33.3552C20.7752 33.1518 20.9882 32.8643 21.1 32.5333L22.15 29.3833L25.1167 30.8666C25.4253 31.0132 25.7714 31.0614 26.1082 31.0048C26.4451 30.9481 26.7564 30.7893 27 30.5499L30.55 26.9999C30.7966 26.7537 30.9597 26.4363 31.0165 26.0925C31.0733 25.7487 31.0209 25.3957 30.8667 25.0833L29.3834 22.1166L32.5334 21.0666C32.8617 20.9557 33.1473 20.7452 33.3505 20.4644C33.5536 20.1836 33.6641 19.8465 33.6667 19.4999V14.4999C33.6676 14.1505 33.5587 13.8097 33.3553 13.5255C33.1519 13.2414 32.8644 13.0284 32.5334 12.9166ZM30.3334 18.2999L28.3334 18.9666C27.8735 19.1158 27.4515 19.3632 27.0968 19.6918C26.7421 20.0203 26.4631 20.4221 26.2791 20.8692C26.0952 21.3164 26.0108 21.7982 26.0316 22.2812C26.0525 22.7643 26.1782 23.237 26.4 23.6666L27.35 25.5666L25.5167 27.3999L23.6667 26.3999C23.2393 26.187 22.7711 26.0684 22.2939 26.0521C21.8167 26.0358 21.3415 26.1223 20.9006 26.3056C20.4597 26.4889 20.0633 26.7648 19.7382 27.1147C19.4132 27.4645 19.1672 27.8801 19.0167 28.3333L18.35 30.3333H15.7L15.0334 28.3333C14.8842 27.8734 14.6368 27.4514 14.3082 27.0967C13.9797 26.742 13.5779 26.463 13.1307 26.279C12.6836 26.0951 12.2018 26.0106 11.7188 26.0315C11.2357 26.0524 10.763 26.1781 10.3334 26.3999L8.43338 27.3499L6.60005 25.5166L7.60005 23.6666C7.82187 23.237 7.94758 22.7643 7.96846 22.2812C7.98933 21.7982 7.90488 21.3164 7.72094 20.8692C7.53701 20.4221 7.25801 20.0203 6.90329 19.6918C6.54857 19.3632 6.12662 19.1158 5.66671 18.9666L3.66671 18.2999V15.6999L5.66671 15.0333C6.12662 14.8841 6.54857 14.6366 6.90329 14.3081C7.25801 13.9795 7.53701 13.5778 7.72094 13.1306C7.90488 12.6835 7.98933 12.2017 7.96846 11.7186C7.94758 11.2356 7.82187 10.7629 7.60005 10.3333L6.65005 8.48326L8.48338 6.64992L10.3334 7.59992C10.763 7.82175 11.2357 7.94746 11.7188 7.96833C12.2018 7.98921 12.6836 7.90475 13.1307 7.72082C13.5779 7.53689 13.9797 7.25789 14.3082 6.90317C14.6368 6.54844 14.8842 6.1265 15.0334 5.66659L15.7 3.66659H18.3L18.9667 5.66659C19.1159 6.1265 19.3633 6.54844 19.6919 6.90317C20.0204 7.25789 20.4222 7.53689 20.8693 7.72082C21.3165 7.90475 21.7983 7.98921 22.2813 7.96833C22.7644 7.94746 23.2371 7.82175 23.6667 7.59992L25.5667 6.64992L27.4 8.48326L26.4 10.3333C26.1871 10.7607 26.0685 11.2288 26.0522 11.7061C26.0359 12.1833 26.1224 12.6585 26.3057 13.0994C26.489 13.5403 26.7649 13.9367 27.1148 14.2617C27.4646 14.5867 27.8802 14.8328 28.3334 14.9833L30.3334 15.6499V18.2999ZM17 10.3333C15.6815 10.3333 14.3926 10.7243 13.2962 11.4568C12.1999 12.1893 11.3454 13.2305 10.8408 14.4487C10.3363 15.6669 10.2042 17.0073 10.4615 18.3005C10.7187 19.5937 11.3537 20.7816 12.286 21.714C13.2184 22.6463 14.4062 23.2813 15.6994 23.5385C16.9927 23.7957 18.3331 23.6637 19.5513 23.1591C20.7694 22.6545 21.8106 21.8001 22.5432 20.7037C23.2757 19.6074 23.6667 18.3185 23.6667 16.9999C23.6667 15.2318 22.9643 13.5361 21.7141 12.2859C20.4638 11.0356 18.7682 10.3333 17 10.3333V10.3333ZM17 20.3333C16.3408 20.3333 15.6963 20.1378 15.1481 19.7715C14.6 19.4052 14.1727 18.8846 13.9204 18.2755C13.6682 17.6664 13.6021 16.9962 13.7308 16.3496C13.8594 15.703 14.1768 15.1091 14.643 14.6429C15.1092 14.1767 15.7031 13.8593 16.3497 13.7306C16.9963 13.602 17.6666 13.668 18.2757 13.9203C18.8847 14.1726 19.4053 14.5999 19.7716 15.148C20.1379 15.6962 20.3334 16.3407 20.3334 16.9999C20.3334 17.884 19.9822 18.7318 19.3571 19.3569C18.7319 19.9821 17.8841 20.3333 17 20.3333Z" fill="white"/>
</svg>
