<svg width="102" height="151" viewBox="0 0 102 151" fill="none" xmlns="http://www.w3.org/2000/svg">
<mask id="path-1-inside-1_520_120" fill="white">
<path fill-rule="evenodd" clip-rule="evenodd" d="M12 0C5.37258 0 0 5.37258 0 12V144C0 145.881 0.432614 147.66 1.20375 149.245L50.5 79L100.364 150.053C101.404 148.276 102 146.208 102 144V12C102 5.37258 96.6274 0 90 0H12Z"/>
</mask>
<path fill-rule="evenodd" clip-rule="evenodd" d="M12 0C5.37258 0 0 5.37258 0 12V144C0 145.881 0.432614 147.66 1.20375 149.245L50.5 79L100.364 150.053C101.404 148.276 102 146.208 102 144V12C102 5.37258 96.6274 0 90 0H12Z" fill="#0085FF"/>
<path d="M1.20375 149.245L-3.29206 151.433L0.421644 159.063L5.29649 152.117L1.20375 149.245ZM50.5 79L54.5927 76.1278L50.5 70.2959L46.4073 76.1278L50.5 79ZM100.364 150.053L96.2709 152.925L100.745 159.3L104.679 152.579L100.364 150.053ZM5 12C5 8.13401 8.13401 5 12 5V-5C2.61116 -5 -5 2.61116 -5 12H5ZM5 144V12H-5V144H5ZM5.69957 147.057C5.25297 146.139 5 145.106 5 144H-5C-5 146.655 -4.38774 149.181 -3.29206 151.433L5.69957 147.057ZM5.29649 152.117L54.5927 81.8722L46.4073 76.1278L-2.88898 146.372L5.29649 152.117ZM46.4073 81.8722L96.2709 152.925L104.456 147.181L54.5927 76.1278L46.4073 81.8722ZM97 144C97 145.296 96.6524 146.496 96.0485 147.527L104.679 152.579C106.155 150.057 107 147.119 107 144H97ZM97 12V144H107V12H97ZM90 5C93.866 5 97 8.13401 97 12H107C107 2.61116 99.3888 -5 90 -5V5ZM12 5H90V-5H12V5Z" fill="#0085FF" mask="url(#path-1-inside-1_520_120)"/>
</svg>
