<svg width="898" height="352" viewBox="0 0 898 352" fill="none" xmlns="http://www.w3.org/2000/svg">
<mask id="mask0_28:205" style="mask-type:alpha" maskUnits="userSpaceOnUse" x="0" y="0" width="898" height="352">
<rect y="7.62939e-06" width="898" height="351.268" rx="16.9968" fill="url(#paint0_linear_28:205)"/>
</mask>
<g mask="url(#mask0_28:205)">
<rect x="-26.9116" y="-42.4921" width="967.404" height="420.672" fill="url(#paint1_linear_28:205)"/>
</g>
<mask id="mask1_28:205" style="mask-type:alpha" maskUnits="userSpaceOnUse" x="0" y="15" width="893" height="321">
<line x1="1.06216" y1="307.36" x2="1.06216" y2="16.925" stroke="#424242" stroke-width="0.708202"/>
<line x1="30.8542" y1="307.36" x2="30.8542" y2="16.925" stroke="#424242" stroke-width="0.708202"/>
<line x1="60.6486" y1="307.36" x2="60.6486" y2="16.925" stroke="#424242" stroke-width="0.708202"/>
<line x1="90.442" y1="307.36" x2="90.442" y2="16.925" stroke="#424242" stroke-width="0.708202"/>
<line x1="120.236" y1="307.36" x2="120.236" y2="16.925" stroke="#424242" stroke-width="0.708202"/>
<line x1="150.029" y1="307.36" x2="150.029" y2="16.925" stroke="#424242" stroke-width="0.708202"/>
<line x1="179.821" y1="306.015" x2="179.821" y2="15.5804" stroke="#424242" stroke-width="0.708202"/>
<line x1="209.616" y1="307.36" x2="209.616" y2="15.5804" stroke="#424242" stroke-width="0.708202"/>
<line x1="239.409" y1="307.36" x2="239.409" y2="16.925" stroke="#424242" stroke-width="0.708202"/>
<line x1="269.202" y1="307.36" x2="269.202" y2="16.925" stroke="#424242" stroke-width="0.708202"/>
<line x1="298.995" y1="307.36" x2="298.995" y2="16.925" stroke="#424242" stroke-width="0.708202"/>
<line x1="328.789" y1="307.36" x2="328.789" y2="16.925" stroke="#424242" stroke-width="0.708202"/>
<line x1="358.582" y1="307.36" x2="358.582" y2="16.925" stroke="#424242" stroke-width="0.708202"/>
<line x1="388.375" y1="307.36" x2="388.375" y2="16.925" stroke="#424242" stroke-width="0.708202"/>
<line x1="418.168" y1="307.36" x2="418.168" y2="16.925" stroke="#424242" stroke-width="0.708202"/>
<line x1="447.962" y1="307.36" x2="447.962" y2="16.925" stroke="#424242" stroke-width="0.708202"/>
<line x1="477.755" y1="307.36" x2="477.755" y2="16.925" stroke="#424242" stroke-width="0.708202"/>
<line x1="507.548" y1="307.36" x2="507.548" y2="16.925" stroke="#424242" stroke-width="0.708202"/>
<line x1="537.341" y1="306.015" x2="537.341" y2="15.5804" stroke="#424242" stroke-width="0.708202"/>
<line x1="567.136" y1="306.015" x2="567.136" y2="15.5804" stroke="#424242" stroke-width="0.708202"/>
<line x1="596.929" y1="307.36" x2="596.929" y2="16.925" stroke="#424242" stroke-width="0.708202"/>
<line x1="626.722" y1="307.36" x2="626.722" y2="16.925" stroke="#424242" stroke-width="0.708202"/>
<line x1="656.515" y1="307.36" x2="656.515" y2="16.925" stroke="#424242" stroke-width="0.708202"/>
<line x1="686.31" y1="307.36" x2="686.31" y2="16.925" stroke="#424242" stroke-width="0.708202"/>
<line x1="656.515" y1="307.36" x2="656.515" y2="16.925" stroke="#424242" stroke-width="0.708202"/>
<line x1="686.31" y1="307.36" x2="686.31" y2="16.925" stroke="#424242" stroke-width="0.708202"/>
<line x1="716.102" y1="307.36" x2="716.102" y2="16.925" stroke="#424242" stroke-width="0.708202"/>
<line x1="745.895" y1="307.36" x2="745.895" y2="16.925" stroke="#424242" stroke-width="0.708202"/>
<line x1="775.688" y1="307.36" x2="775.688" y2="16.925" stroke="#424242" stroke-width="0.708202"/>
<line x1="805.481" y1="307.36" x2="805.481" y2="16.925" stroke="#424242" stroke-width="0.708202"/>
<line x1="835.276" y1="307.36" x2="835.276" y2="16.925" stroke="#424242" stroke-width="0.708202"/>
<line x1="865.068" y1="307.36" x2="865.068" y2="16.925" stroke="#424242" stroke-width="0.708202"/>
<line x1="1.4165" y1="16.6428" x2="865.423" y2="16.6428" stroke="#424242" stroke-width="0.708202"/>
<line x1="1.41626" y1="52.7419" x2="865.423" y2="52.7419" stroke="#424242" stroke-width="0.708202"/>
<line x1="1.41626" y1="88.8411" x2="865.423" y2="88.8411" stroke="#424242" stroke-width="0.708202"/>
<path d="M1.41626 125.294C338.832 125.294 528.007 125.294 865.423 125.294" stroke="#424242" stroke-width="0.708202"/>
<line x1="1.41626" y1="161.039" x2="865.423" y2="161.039" stroke="#424242" stroke-width="0.708202"/>
<line x1="1.41626" y1="197.139" x2="865.423" y2="197.139" stroke="#424242" stroke-width="0.708202"/>
<line x1="1.41626" y1="233.238" x2="865.423" y2="233.238" stroke="#424242" stroke-width="0.708202"/>
<line x1="1.41626" y1="269.337" x2="865.423" y2="269.337" stroke="#424242" stroke-width="0.708202"/>
<line x1="1.41626" y1="307.006" x2="865.423" y2="307.006" stroke="#424242" stroke-width="0.708202"/>
<path d="M877.504 298.649C877.504 297.015 877.797 295.736 878.383 294.811C878.977 293.885 879.959 293.423 881.329 293.423C882.698 293.423 883.675 293.885 884.261 294.811C884.855 295.736 885.153 297.015 885.153 298.649C885.153 300.292 884.855 301.581 884.261 302.516C883.675 303.451 882.698 303.918 881.329 303.918C879.959 303.918 878.977 303.451 878.383 302.516C877.797 301.581 877.504 300.292 877.504 298.649ZM883.198 298.649C883.198 297.95 883.151 297.365 883.057 296.893C882.972 296.411 882.792 296.019 882.518 295.717C882.254 295.415 881.857 295.264 881.329 295.264C880.8 295.264 880.399 295.415 880.125 295.717C879.86 296.019 879.681 296.411 879.586 296.893C879.501 297.365 879.459 297.95 879.459 298.649C879.459 299.367 879.501 299.971 879.586 300.462C879.671 300.944 879.851 301.336 880.125 301.638C880.399 301.93 880.8 302.077 881.329 302.077C881.857 302.077 882.259 301.93 882.533 301.638C882.806 301.336 882.986 300.944 883.071 300.462C883.156 299.971 883.198 299.367 883.198 298.649Z" fill="white"/>
<path d="M873.878 269.131C874.785 268.376 875.507 267.748 876.045 267.247C876.584 266.737 877.032 266.209 877.391 265.661C877.75 265.113 877.929 264.575 877.929 264.046C877.929 263.565 877.816 263.187 877.589 262.913C877.363 262.639 877.013 262.502 876.541 262.502C876.069 262.502 875.705 262.663 875.451 262.984C875.196 263.296 875.063 263.725 875.054 264.273H873.128C873.165 263.14 873.501 262.281 874.133 261.695C874.775 261.11 875.587 260.817 876.569 260.817C877.646 260.817 878.472 261.105 879.048 261.681C879.624 262.247 879.912 262.998 879.912 263.933C879.912 264.67 879.714 265.373 879.317 266.043C878.921 266.714 878.467 267.299 877.958 267.8C877.448 268.291 876.782 268.886 875.96 269.584H880.139V271.227H873.142V269.754L873.878 269.131ZM881.388 266.072C881.388 264.438 881.681 263.159 882.267 262.233C882.861 261.308 883.843 260.845 885.213 260.845C886.582 260.845 887.559 261.308 888.145 262.233C888.739 263.159 889.037 264.438 889.037 266.072C889.037 267.715 888.739 269.004 888.145 269.939C887.559 270.873 886.582 271.341 885.213 271.341C883.843 271.341 882.861 270.873 882.267 269.939C881.681 269.004 881.388 267.715 881.388 266.072ZM887.082 266.072C887.082 265.373 887.035 264.788 886.941 264.315C886.856 263.834 886.676 263.442 886.402 263.14C886.138 262.838 885.741 262.687 885.213 262.687C884.684 262.687 884.283 262.838 884.009 263.14C883.744 263.442 883.565 263.834 883.47 264.315C883.385 264.788 883.343 265.373 883.343 266.072C883.343 266.789 883.385 267.394 883.47 267.885C883.555 268.366 883.735 268.758 884.009 269.06C884.283 269.353 884.684 269.499 885.213 269.499C885.741 269.499 886.143 269.353 886.417 269.06C886.69 268.758 886.87 268.366 886.955 267.885C887.04 267.394 887.082 266.789 887.082 266.072Z" fill="white"/>
<path d="M871.754 236.781V235.222L876.385 228.594H878.694V235.053H879.941V236.781H878.694V238.792H876.711V236.781H871.754ZM876.839 230.718L873.935 235.053H876.839V230.718ZM881.203 233.494C881.203 231.861 881.496 230.581 882.081 229.656C882.676 228.731 883.658 228.268 885.027 228.268C886.397 228.268 887.374 228.731 887.959 229.656C888.554 230.581 888.852 231.861 888.852 233.494C888.852 235.137 888.554 236.426 887.959 237.361C887.374 238.296 886.397 238.763 885.027 238.763C883.658 238.763 882.676 238.296 882.081 237.361C881.496 236.426 881.203 235.137 881.203 233.494ZM886.897 233.494C886.897 232.796 886.85 232.21 886.755 231.738C886.67 231.257 886.491 230.865 886.217 230.563C885.953 230.26 885.556 230.109 885.027 230.109C884.499 230.109 884.097 230.26 883.823 230.563C883.559 230.865 883.38 231.257 883.285 231.738C883.2 232.21 883.158 232.796 883.158 233.494C883.158 234.212 883.2 234.816 883.285 235.307C883.37 235.789 883.55 236.181 883.823 236.483C884.097 236.776 884.499 236.922 885.027 236.922C885.556 236.922 885.958 236.776 886.231 236.483C886.505 236.181 886.685 235.789 886.77 235.307C886.855 234.816 886.897 234.212 886.897 233.494Z" fill="white"/>
<path d="M878.609 198.467C878.515 198.07 878.349 197.773 878.113 197.574C877.887 197.376 877.556 197.277 877.122 197.277C876.47 197.277 875.989 197.541 875.677 198.07C875.375 198.59 875.219 199.439 875.21 200.62C875.436 200.242 875.767 199.949 876.201 199.742C876.636 199.524 877.108 199.416 877.618 199.416C878.231 199.416 878.774 199.548 879.246 199.812C879.719 200.077 880.087 200.464 880.351 200.974C880.616 201.474 880.748 202.079 880.748 202.787C880.748 203.457 880.611 204.057 880.337 204.586C880.073 205.105 879.681 205.511 879.161 205.804C878.642 206.097 878.024 206.243 877.306 206.243C876.324 206.243 875.55 206.026 874.983 205.591C874.426 205.157 874.034 204.553 873.807 203.778C873.59 202.995 873.482 202.031 873.482 200.889C873.482 199.161 873.779 197.858 874.374 196.98C874.969 196.092 875.908 195.648 877.193 195.648C878.184 195.648 878.954 195.917 879.501 196.456C880.049 196.994 880.365 197.664 880.45 198.467H878.609ZM877.164 201.045C876.664 201.045 876.244 201.191 875.904 201.484C875.564 201.776 875.394 202.201 875.394 202.759C875.394 203.316 875.55 203.755 875.861 204.076C876.182 204.397 876.631 204.557 877.207 204.557C877.717 204.557 878.118 204.402 878.411 204.09C878.713 203.778 878.864 203.358 878.864 202.829C878.864 202.282 878.718 201.847 878.425 201.526C878.142 201.205 877.721 201.045 877.164 201.045ZM882.315 200.917C882.315 199.284 882.608 198.004 883.193 197.079C883.788 196.153 884.77 195.691 886.139 195.691C887.509 195.691 888.486 196.153 889.071 197.079C889.666 198.004 889.964 199.284 889.964 200.917C889.964 202.56 889.666 203.849 889.071 204.784C888.486 205.719 887.509 206.186 886.139 206.186C884.77 206.186 883.788 205.719 883.193 204.784C882.608 203.849 882.315 202.56 882.315 200.917ZM888.009 200.917C888.009 200.218 887.962 199.633 887.867 199.161C887.782 198.679 887.603 198.287 887.329 197.985C887.065 197.683 886.668 197.532 886.139 197.532C885.611 197.532 885.209 197.683 884.935 197.985C884.671 198.287 884.492 198.679 884.397 199.161C884.312 199.633 884.27 200.218 884.27 200.917C884.27 201.635 884.312 202.239 884.397 202.73C884.482 203.212 884.662 203.604 884.935 203.906C885.209 204.199 885.611 204.345 886.139 204.345C886.668 204.345 887.069 204.199 887.343 203.906C887.617 203.604 887.797 203.212 887.882 202.73C887.967 202.239 888.009 201.635 888.009 200.917Z" fill="white"/>
<path d="M874.983 168.17C874.039 167.679 873.567 166.919 873.567 165.89C873.567 165.38 873.694 164.917 873.949 164.501C874.214 164.077 874.605 163.741 875.125 163.496C875.654 163.241 876.296 163.113 877.051 163.113C877.806 163.113 878.444 163.241 878.963 163.496C879.492 163.741 879.884 164.077 880.139 164.501C880.403 164.917 880.535 165.38 880.535 165.89C880.535 166.409 880.408 166.867 880.153 167.263C879.898 167.651 879.558 167.953 879.133 168.17C879.653 168.397 880.059 168.727 880.351 169.161C880.644 169.596 880.79 170.11 880.79 170.705C880.79 171.347 880.625 171.909 880.295 172.391C879.974 172.863 879.53 173.227 878.963 173.481C878.397 173.736 877.759 173.864 877.051 173.864C876.343 173.864 875.705 173.736 875.139 173.481C874.582 173.227 874.138 172.863 873.807 172.391C873.486 171.909 873.326 171.347 873.326 170.705C873.326 170.11 873.472 169.596 873.765 169.161C874.058 168.718 874.464 168.387 874.983 168.17ZM878.609 166.173C878.609 165.71 878.467 165.351 878.184 165.096C877.91 164.841 877.533 164.714 877.051 164.714C876.579 164.714 876.201 164.841 875.918 165.096C875.644 165.351 875.507 165.715 875.507 166.187C875.507 166.612 875.649 166.952 875.932 167.207C876.225 167.462 876.598 167.589 877.051 167.589C877.504 167.589 877.877 167.462 878.17 167.207C878.463 166.942 878.609 166.598 878.609 166.173ZM877.051 169.034C876.513 169.034 876.074 169.171 875.734 169.445C875.403 169.719 875.238 170.11 875.238 170.62C875.238 171.092 875.399 171.48 875.72 171.782C876.05 172.075 876.494 172.221 877.051 172.221C877.608 172.221 878.047 172.07 878.368 171.768C878.689 171.465 878.85 171.083 878.85 170.62C878.85 170.12 878.685 169.733 878.354 169.459C878.024 169.176 877.589 169.034 877.051 169.034ZM882.357 168.34C882.357 166.706 882.649 165.427 883.235 164.501C883.83 163.576 884.812 163.113 886.181 163.113C887.55 163.113 888.527 163.576 889.113 164.501C889.708 165.427 890.005 166.706 890.005 168.34C890.005 169.983 889.708 171.272 889.113 172.207C888.527 173.142 887.55 173.609 886.181 173.609C884.812 173.609 883.83 173.142 883.235 172.207C882.649 171.272 882.357 169.983 882.357 168.34ZM888.051 168.34C888.051 167.641 888.003 167.056 887.909 166.584C887.824 166.102 887.644 165.71 887.371 165.408C887.106 165.106 886.71 164.955 886.181 164.955C885.652 164.955 885.251 165.106 884.977 165.408C884.713 165.71 884.533 166.102 884.439 166.584C884.354 167.056 884.311 167.641 884.311 168.34C884.311 169.058 884.354 169.662 884.439 170.153C884.524 170.634 884.703 171.026 884.977 171.329C885.251 171.621 885.652 171.768 886.181 171.768C886.71 171.768 887.111 171.621 887.385 171.329C887.659 171.026 887.838 170.634 887.923 170.153C888.008 169.662 888.051 169.058 888.051 168.34Z" fill="white"/>
<path d="M870.182 132.562V130.734H873.595V141.06H871.555V132.562H870.182ZM875.554 135.763C875.554 134.129 875.847 132.85 876.432 131.924C877.027 130.999 878.009 130.536 879.378 130.536C880.748 130.536 881.725 130.999 882.31 131.924C882.905 132.85 883.203 134.129 883.203 135.763C883.203 137.406 882.905 138.695 882.31 139.629C881.725 140.564 880.748 141.032 879.378 141.032C878.009 141.032 877.027 140.564 876.432 139.629C875.847 138.695 875.554 137.406 875.554 135.763ZM881.248 135.763C881.248 135.064 881.201 134.478 881.106 134.006C881.021 133.525 880.842 133.133 880.568 132.831C880.304 132.528 879.907 132.377 879.378 132.377C878.85 132.377 878.448 132.528 878.174 132.831C877.91 133.133 877.731 133.525 877.636 134.006C877.551 134.478 877.509 135.064 877.509 135.763C877.509 136.48 877.551 137.085 877.636 137.576C877.721 138.057 877.901 138.449 878.174 138.751C878.448 139.044 878.85 139.19 879.378 139.19C879.907 139.19 880.308 139.044 880.582 138.751C880.856 138.449 881.036 138.057 881.12 137.576C881.205 137.085 881.248 136.48 881.248 135.763ZM884.711 135.763C884.711 134.129 885.004 132.85 885.589 131.924C886.184 130.999 887.166 130.536 888.535 130.536C889.904 130.536 890.882 130.999 891.467 131.924C892.062 132.85 892.359 134.129 892.359 135.763C892.359 137.406 892.062 138.695 891.467 139.629C890.882 140.564 889.904 141.032 888.535 141.032C887.166 141.032 886.184 140.564 885.589 139.629C885.004 138.695 884.711 137.406 884.711 135.763ZM890.405 135.763C890.405 135.064 890.358 134.478 890.263 134.006C890.178 133.525 889.999 133.133 889.725 132.831C889.461 132.528 889.064 132.377 888.535 132.377C888.006 132.377 887.605 132.528 887.331 132.831C887.067 133.133 886.887 133.525 886.793 134.006C886.708 134.478 886.665 135.064 886.665 135.763C886.665 136.48 886.708 137.085 886.793 137.576C886.878 138.057 887.057 138.449 887.331 138.751C887.605 139.044 888.006 139.19 888.535 139.19C889.064 139.19 889.465 139.044 889.739 138.751C890.013 138.449 890.192 138.057 890.277 137.576C890.362 137.085 890.405 136.48 890.405 135.763Z" fill="white"/>
<path d="M870.182 99.9842V98.1571H873.595V108.483H871.555V99.9842H870.182ZM876.177 106.245C877.084 105.489 877.806 104.861 878.344 104.361C878.883 103.851 879.331 103.322 879.69 102.775C880.049 102.227 880.228 101.689 880.228 101.16C880.228 100.678 880.115 100.301 879.888 100.027C879.662 99.7529 879.312 99.616 878.84 99.616C878.368 99.616 878.004 99.7765 877.749 100.098C877.494 100.409 877.362 100.839 877.353 101.386H875.427C875.464 100.253 875.8 99.3941 876.432 98.8086C877.074 98.2232 877.886 97.9305 878.868 97.9305C879.945 97.9305 880.771 98.2185 881.347 98.7945C881.923 99.361 882.211 100.112 882.211 101.047C882.211 101.783 882.013 102.487 881.616 103.157C881.22 103.827 880.766 104.413 880.256 104.913C879.747 105.404 879.081 105.999 878.259 106.698H882.438V108.341H875.441V106.868L876.177 106.245ZM883.687 103.185C883.687 101.552 883.98 100.272 884.565 99.3469C885.16 98.4215 886.142 97.9588 887.512 97.9588C888.881 97.9588 889.858 98.4215 890.444 99.3469C891.038 100.272 891.336 101.552 891.336 103.185C891.336 104.828 891.038 106.117 890.444 107.052C889.858 107.987 888.881 108.454 887.512 108.454C886.142 108.454 885.16 107.987 884.565 107.052C883.98 106.117 883.687 104.828 883.687 103.185ZM889.381 103.185C889.381 102.487 889.334 101.901 889.24 101.429C889.155 100.947 888.975 100.556 888.701 100.253C888.437 99.9512 888.04 99.8001 887.512 99.8001C886.983 99.8001 886.581 99.9512 886.308 100.253C886.043 100.556 885.864 100.947 885.769 101.429C885.684 101.901 885.642 102.487 885.642 103.185C885.642 103.903 885.684 104.507 885.769 104.998C885.854 105.48 886.034 105.872 886.308 106.174C886.581 106.467 886.983 106.613 887.512 106.613C888.04 106.613 888.442 106.467 888.716 106.174C888.989 105.872 889.169 105.48 889.254 104.998C889.339 104.507 889.381 103.903 889.381 103.185Z" fill="white"/>
<path d="M870.182 67.407V65.5798H873.595V75.9054H871.555V67.407H870.182ZM875.469 73.8941V72.3361L880.101 65.7073H882.409V72.1661H883.656V73.8941H882.409V75.9054H880.426V73.8941H875.469ZM880.554 67.8319L877.65 72.1661H880.554V67.8319ZM884.918 70.608C884.918 68.9745 885.211 67.695 885.797 66.7696C886.391 65.8442 887.373 65.3815 888.743 65.3815C890.112 65.3815 891.089 65.8442 891.675 66.7696C892.269 67.695 892.567 68.9745 892.567 70.608C892.567 72.2511 892.269 73.54 891.675 74.4748C891.089 75.4097 890.112 75.8771 888.743 75.8771C887.373 75.8771 886.391 75.4097 885.797 74.4748C885.211 73.54 884.918 72.2511 884.918 70.608ZM890.612 70.608C890.612 69.9093 890.565 69.3238 890.471 68.8517C890.386 68.3701 890.206 67.9783 889.932 67.6761C889.668 67.3739 889.271 67.2228 888.743 67.2228C888.214 67.2228 887.813 67.3739 887.539 67.6761C887.274 67.9783 887.095 68.3701 887 68.8517C886.915 69.3238 886.873 69.9093 886.873 70.608C886.873 71.3257 886.915 71.93 887 72.421C887.085 72.9026 887.265 73.2945 887.539 73.5967C887.813 73.8894 888.214 74.0357 888.743 74.0357C889.271 74.0357 889.673 73.8894 889.947 73.5967C890.22 73.2945 890.4 72.9026 890.485 72.421C890.57 71.93 890.612 71.3257 890.612 70.608Z" fill="white"/>
<path d="M870.182 34.8297V33.0025H873.595V43.3281H871.555V34.8297H870.182ZM880.908 35.5804C880.814 35.1838 880.648 34.8863 880.412 34.688C880.186 34.4897 879.855 34.3906 879.421 34.3906C878.769 34.3906 878.288 34.655 877.976 35.1838C877.674 35.7031 877.518 36.553 877.509 37.7333C877.735 37.3556 878.066 37.0629 878.5 36.8551C878.935 36.6379 879.407 36.5294 879.917 36.5294C880.53 36.5294 881.073 36.6616 881.545 36.9259C882.018 37.1903 882.386 37.5775 882.65 38.0874C882.915 38.5879 883.047 39.1922 883.047 39.9004C883.047 40.5708 882.91 41.1704 882.636 41.6992C882.372 42.2186 881.98 42.6246 881.46 42.9173C880.941 43.2101 880.323 43.3564 879.605 43.3564C878.623 43.3564 877.849 43.1392 877.282 42.7049C876.725 42.2705 876.333 41.6662 876.106 40.8919C875.889 40.1081 875.781 39.145 875.781 38.0024C875.781 36.2744 876.078 34.9713 876.673 34.0931C877.268 33.2055 878.207 32.7617 879.492 32.7617C880.483 32.7617 881.253 33.0308 881.8 33.5691C882.348 34.1073 882.664 34.7777 882.749 35.5804H880.908ZM879.463 38.1582C878.963 38.1582 878.543 38.3046 878.203 38.5973C877.863 38.89 877.693 39.315 877.693 39.8721C877.693 40.4292 877.849 40.8683 878.16 41.1893C878.481 41.5104 878.93 41.6709 879.506 41.6709C880.016 41.6709 880.417 41.5151 880.71 41.2035C881.012 40.8919 881.163 40.4717 881.163 39.9429C881.163 39.3952 881.017 38.9608 880.724 38.6398C880.441 38.3187 880.02 38.1582 879.463 38.1582ZM884.614 38.0307C884.614 36.3972 884.907 35.1177 885.492 34.1923C886.087 33.2669 887.069 32.8042 888.438 32.8042C889.808 32.8042 890.785 33.2669 891.37 34.1923C891.965 35.1177 892.263 36.3972 892.263 38.0307C892.263 39.6738 891.965 40.9627 891.37 41.8975C890.785 42.8324 889.808 43.2998 888.438 43.2998C887.069 43.2998 886.087 42.8324 885.492 41.8975C884.907 40.9627 884.614 39.6738 884.614 38.0307ZM890.308 38.0307C890.308 37.332 890.261 36.7465 890.166 36.2744C890.081 35.7928 889.902 35.401 889.628 35.0988C889.364 34.7966 888.967 34.6455 888.438 34.6455C887.91 34.6455 887.508 34.7966 887.234 35.0988C886.97 35.401 886.791 35.7928 886.696 36.2744C886.611 36.7465 886.569 37.332 886.569 38.0307C886.569 38.7484 886.611 39.3527 886.696 39.8437C886.781 40.3253 886.961 40.7172 887.234 41.0194C887.508 41.3121 887.91 41.4584 888.438 41.4584C888.967 41.4584 889.368 41.3121 889.642 41.0194C889.916 40.7172 890.096 40.3253 890.18 39.8437C890.265 39.3527 890.308 38.7484 890.308 38.0307Z" fill="white"/>
<path d="M23.1723 326.609V324.782H26.5858V335.107H24.5462V326.609H23.1723Z" fill="white"/>
<path d="M69.3612 332.869C70.2677 332.114 70.9901 331.486 71.5283 330.986C72.0665 330.476 72.5151 329.947 72.8739 329.399C73.2327 328.851 73.4121 328.313 73.4121 327.784C73.4121 327.303 73.2988 326.925 73.0722 326.651C72.8456 326.378 72.4962 326.241 72.0241 326.241C71.5519 326.241 71.1884 326.401 70.9334 326.722C70.6785 327.034 70.5463 327.463 70.5368 328.011H68.6105C68.6483 326.878 68.9835 326.019 69.6162 325.433C70.2583 324.848 71.0703 324.555 72.0524 324.555C73.1289 324.555 73.9551 324.843 74.5311 325.419C75.1071 325.986 75.3951 326.736 75.3951 327.671C75.3951 328.408 75.1968 329.111 74.8002 329.782C74.4036 330.452 73.9504 331.037 73.4405 331.538C72.9306 332.029 72.2648 332.624 71.4433 333.323H75.6217V334.966H68.6247V333.493L69.3612 332.869Z" fill="white"/>
<path d="M121.173 327.501C121.221 326.557 121.551 325.83 122.165 325.32C122.788 324.801 123.605 324.541 124.615 324.541C125.304 324.541 125.895 324.664 126.386 324.909C126.877 325.145 127.245 325.471 127.49 325.886C127.745 326.293 127.873 326.755 127.873 327.275C127.873 327.869 127.717 328.375 127.405 328.79C127.103 329.196 126.74 329.47 126.315 329.612V329.668C126.863 329.838 127.287 330.14 127.59 330.575C127.901 331.009 128.057 331.566 128.057 332.246C128.057 332.813 127.925 333.318 127.66 333.762C127.405 334.205 127.023 334.555 126.513 334.81C126.013 335.055 125.408 335.178 124.7 335.178C123.633 335.178 122.764 334.909 122.094 334.371C121.424 333.833 121.069 333.039 121.032 331.991H122.958C122.977 332.454 123.133 332.827 123.425 333.11C123.728 333.384 124.138 333.521 124.658 333.521C125.139 333.521 125.508 333.389 125.762 333.124C126.027 332.85 126.159 332.501 126.159 332.076C126.159 331.51 125.98 331.104 125.621 330.858C125.262 330.613 124.705 330.49 123.949 330.49H123.539V328.861H123.949C125.29 328.861 125.961 328.412 125.961 327.515C125.961 327.109 125.838 326.793 125.592 326.566C125.356 326.34 125.012 326.226 124.559 326.226C124.115 326.226 123.77 326.349 123.525 326.595C123.288 326.831 123.152 327.133 123.114 327.501H121.173Z" fill="white"/>
<path d="M170.634 333.096V331.538L175.266 324.909H177.575V331.368H178.821V333.096H177.575V335.107H175.592V333.096H170.634ZM175.719 327.034L172.815 331.368H175.719V327.034Z" fill="white"/>
<path d="M228.65 326.496H224.061V328.918C224.259 328.672 224.542 328.474 224.911 328.323C225.279 328.162 225.671 328.082 226.086 328.082C226.842 328.082 227.46 328.247 227.942 328.578C228.423 328.908 228.773 329.333 228.99 329.852C229.207 330.362 229.316 330.91 229.316 331.495C229.316 332.581 229.004 333.455 228.381 334.116C227.767 334.777 226.889 335.107 225.746 335.107C224.67 335.107 223.811 334.838 223.169 334.3C222.526 333.762 222.163 333.058 222.078 332.189H224.004C224.089 332.567 224.278 332.869 224.571 333.096C224.873 333.323 225.255 333.436 225.718 333.436C226.275 333.436 226.695 333.261 226.979 332.912C227.262 332.562 227.404 332.1 227.404 331.524C227.404 330.938 227.257 330.495 226.965 330.192C226.681 329.881 226.261 329.725 225.704 329.725C225.307 329.725 224.977 329.824 224.712 330.022C224.448 330.221 224.259 330.485 224.146 330.816H222.248V324.753H228.65V326.496Z" fill="white"/>
<path d="M278.054 327.36C277.96 326.963 277.794 326.666 277.558 326.467C277.332 326.269 277.001 326.17 276.567 326.17C275.915 326.17 275.434 326.434 275.122 326.963C274.82 327.482 274.664 328.332 274.655 329.512C274.881 329.135 275.212 328.842 275.646 328.634C276.081 328.417 276.553 328.309 277.063 328.309C277.676 328.309 278.219 328.441 278.692 328.705C279.164 328.97 279.532 329.357 279.796 329.867C280.061 330.367 280.193 330.971 280.193 331.68C280.193 332.35 280.056 332.95 279.782 333.478C279.518 333.998 279.126 334.404 278.607 334.697C278.087 334.989 277.469 335.136 276.751 335.136C275.769 335.136 274.995 334.918 274.428 334.484C273.871 334.05 273.479 333.445 273.253 332.671C273.035 331.887 272.927 330.924 272.927 329.782C272.927 328.054 273.224 326.75 273.819 325.872C274.414 324.985 275.354 324.541 276.638 324.541C277.629 324.541 278.399 324.81 278.946 325.348C279.494 325.886 279.811 326.557 279.895 327.36H278.054ZM276.609 329.937C276.109 329.937 275.689 330.084 275.349 330.376C275.009 330.669 274.839 331.094 274.839 331.651C274.839 332.208 274.995 332.647 275.306 332.968C275.627 333.29 276.076 333.45 276.652 333.45C277.162 333.45 277.563 333.294 277.856 332.983C278.158 332.671 278.309 332.251 278.309 331.722C278.309 331.174 278.163 330.74 277.87 330.419C277.587 330.098 277.167 329.937 276.609 329.937Z" fill="white"/>
<path d="M330.263 326.283L326.495 335.107H324.484L328.28 326.51H323.436V324.81H330.263V326.283Z" fill="white"/>
<path d="M373.576 329.64C372.632 329.149 372.16 328.389 372.16 327.36C372.16 326.85 372.287 326.387 372.542 325.971C372.807 325.547 373.199 325.211 373.718 324.966C374.247 324.711 374.889 324.583 375.644 324.583C376.4 324.583 377.037 324.711 377.556 324.966C378.085 325.211 378.477 325.547 378.732 325.971C378.996 326.387 379.129 326.85 379.129 327.36C379.129 327.879 379.001 328.337 378.746 328.733C378.491 329.121 378.151 329.423 377.726 329.64C378.246 329.867 378.652 330.197 378.945 330.631C379.237 331.066 379.384 331.58 379.384 332.175C379.384 332.817 379.218 333.379 378.888 333.861C378.567 334.333 378.123 334.697 377.556 334.951C376.99 335.206 376.353 335.334 375.644 335.334C374.936 335.334 374.299 335.206 373.732 334.951C373.175 334.697 372.731 334.333 372.401 333.861C372.08 333.379 371.919 332.817 371.919 332.175C371.919 331.58 372.066 331.066 372.358 330.631C372.651 330.188 373.057 329.857 373.576 329.64ZM377.202 327.643C377.202 327.18 377.061 326.821 376.777 326.566C376.504 326.311 376.126 326.184 375.644 326.184C375.172 326.184 374.794 326.311 374.511 326.566C374.237 326.821 374.1 327.185 374.1 327.657C374.1 328.082 374.242 328.422 374.525 328.677C374.818 328.932 375.191 329.059 375.644 329.059C376.098 329.059 376.471 328.932 376.763 328.677C377.056 328.412 377.202 328.068 377.202 327.643ZM375.644 330.504C375.106 330.504 374.667 330.641 374.327 330.915C373.997 331.189 373.831 331.58 373.831 332.09C373.831 332.562 373.992 332.95 374.313 333.252C374.643 333.545 375.087 333.691 375.644 333.691C376.201 333.691 376.641 333.54 376.962 333.238C377.283 332.935 377.443 332.553 377.443 332.09C377.443 331.59 377.278 331.203 376.947 330.929C376.617 330.646 376.183 330.504 375.644 330.504Z" fill="white"/>
<path d="M426.55 332.204C426.625 332.619 426.795 332.94 427.06 333.167C427.334 333.384 427.697 333.493 428.15 333.493C428.736 333.493 429.161 333.252 429.425 332.77C429.69 332.279 429.822 331.458 429.822 330.306C429.605 330.608 429.298 330.844 428.901 331.014C428.514 331.184 428.094 331.269 427.641 331.269C427.036 331.269 426.489 331.146 425.998 330.901C425.516 330.646 425.134 330.273 424.85 329.782C424.567 329.281 424.425 328.677 424.425 327.969C424.425 326.92 424.737 326.089 425.36 325.476C425.983 324.853 426.833 324.541 427.91 324.541C429.251 324.541 430.195 324.971 430.742 325.83C431.3 326.689 431.578 327.983 431.578 329.711C431.578 330.938 431.47 331.944 431.252 332.728C431.045 333.511 430.681 334.106 430.162 334.512C429.652 334.918 428.953 335.121 428.065 335.121C427.367 335.121 426.772 334.989 426.281 334.725C425.79 334.451 425.412 334.097 425.148 333.663C424.893 333.219 424.746 332.732 424.709 332.204H426.55ZM428.051 329.654C428.542 329.654 428.929 329.503 429.213 329.201C429.496 328.899 429.638 328.493 429.638 327.983C429.638 327.426 429.487 326.996 429.184 326.694C428.892 326.382 428.49 326.226 427.98 326.226C427.471 326.226 427.065 326.387 426.762 326.708C426.47 327.02 426.323 327.435 426.323 327.954C426.323 328.455 426.465 328.866 426.748 329.187C427.041 329.498 427.475 329.654 428.051 329.654Z" fill="white"/>
<path d="M473.589 326.609V324.782H477.002V335.107H474.963V326.609H473.589ZM478.961 329.81C478.961 328.176 479.254 326.897 479.839 325.971C480.434 325.046 481.416 324.583 482.786 324.583C484.155 324.583 485.132 325.046 485.717 325.971C486.312 326.897 486.61 328.176 486.61 329.81C486.61 331.453 486.312 332.742 485.717 333.677C485.132 334.612 484.155 335.079 482.786 335.079C481.416 335.079 480.434 334.612 479.839 333.677C479.254 332.742 478.961 331.453 478.961 329.81ZM484.655 329.81C484.655 329.111 484.608 328.526 484.514 328.054C484.429 327.572 484.249 327.18 483.975 326.878C483.711 326.576 483.314 326.425 482.786 326.425C482.257 326.425 481.855 326.576 481.582 326.878C481.317 327.18 481.138 327.572 481.043 328.054C480.958 328.526 480.916 329.111 480.916 329.81C480.916 330.528 480.958 331.132 481.043 331.623C481.128 332.104 481.308 332.496 481.582 332.799C481.855 333.091 482.257 333.238 482.786 333.238C483.314 333.238 483.716 333.091 483.989 332.799C484.263 332.496 484.443 332.104 484.528 331.623C484.613 331.132 484.655 330.528 484.655 329.81Z" fill="white"/>
<path d="M524.579 326.609V324.782H527.993V335.107H525.953V326.609H524.579ZM529.711 326.609V324.782H533.124V335.107H531.085V326.609H529.711Z" fill="white"/>
<path d="M575.57 326.609V324.782H578.983V335.107H576.944V326.609H575.57ZM581.566 332.869C582.472 332.114 583.195 331.486 583.733 330.986C584.271 330.476 584.72 329.947 585.078 329.399C585.437 328.851 585.617 328.313 585.617 327.784C585.617 327.303 585.503 326.925 585.277 326.651C585.05 326.378 584.701 326.241 584.229 326.241C583.756 326.241 583.393 326.401 583.138 326.722C582.883 327.034 582.751 327.463 582.741 328.011H580.815C580.853 326.878 581.188 326.019 581.821 325.433C582.463 324.848 583.275 324.555 584.257 324.555C585.333 324.555 586.16 324.843 586.736 325.419C587.312 325.986 587.6 326.736 587.6 327.671C587.6 328.408 587.401 329.111 587.005 329.782C586.608 330.452 586.155 331.037 585.645 331.538C585.135 332.029 584.469 332.624 583.648 333.323H587.826V334.966H580.829V333.493L581.566 332.869Z" fill="white"/>
<path d="M626.56 326.609V324.782H629.974V335.107H627.934V326.609H626.56ZM631.961 327.501C632.008 326.557 632.339 325.83 632.953 325.32C633.576 324.801 634.393 324.541 635.403 324.541C636.092 324.541 636.683 324.664 637.174 324.909C637.665 325.145 638.033 325.471 638.278 325.886C638.533 326.293 638.661 326.755 638.661 327.275C638.661 327.869 638.505 328.375 638.193 328.79C637.891 329.196 637.528 329.47 637.103 329.612V329.668C637.65 329.838 638.075 330.14 638.378 330.575C638.689 331.009 638.845 331.566 638.845 332.246C638.845 332.813 638.713 333.318 638.448 333.762C638.193 334.205 637.811 334.555 637.301 334.81C636.801 335.055 636.196 335.178 635.488 335.178C634.421 335.178 633.552 334.909 632.882 334.371C632.211 333.833 631.857 333.039 631.82 331.991H633.746C633.765 332.454 633.921 332.827 634.213 333.11C634.516 333.384 634.926 333.521 635.446 333.521C635.927 333.521 636.295 333.389 636.55 333.124C636.815 332.85 636.947 332.501 636.947 332.076C636.947 331.51 636.768 331.104 636.409 330.858C636.05 330.613 635.493 330.49 634.737 330.49H634.327V328.861H634.737C636.078 328.861 636.749 328.412 636.749 327.515C636.749 327.109 636.626 326.793 636.38 326.566C636.144 326.34 635.8 326.226 635.346 326.226C634.903 326.226 634.558 326.349 634.312 326.595C634.076 326.831 633.94 327.133 633.902 327.501H631.961Z" fill="white"/>
<path d="M676.134 326.609V324.782H679.548V335.107H677.508V326.609H676.134ZM681.422 333.096V331.538L686.054 324.909H688.362V331.368H689.609V333.096H688.362V335.107H686.379V333.096H681.422ZM686.507 327.034L683.603 331.368H686.507V327.034Z" fill="white"/>
<path d="M727.125 326.609V324.782H730.539V335.107H728.499V326.609H727.125ZM739.438 326.496H734.849V328.918C735.047 328.672 735.33 328.474 735.699 328.323C736.067 328.162 736.459 328.082 736.874 328.082C737.63 328.082 738.248 328.247 738.73 328.578C739.211 328.908 739.561 329.333 739.778 329.852C739.995 330.362 740.104 330.91 740.104 331.495C740.104 332.581 739.792 333.455 739.169 334.116C738.555 334.777 737.677 335.107 736.534 335.107C735.458 335.107 734.599 334.838 733.957 334.3C733.314 333.762 732.951 333.058 732.866 332.189H734.792C734.877 332.567 735.066 332.869 735.359 333.096C735.661 333.323 736.043 333.436 736.506 333.436C737.063 333.436 737.483 333.261 737.767 332.912C738.05 332.562 738.192 332.1 738.192 331.524C738.192 330.938 738.045 330.495 737.752 330.192C737.469 329.881 737.049 329.725 736.492 329.725C736.095 329.725 735.765 329.824 735.5 330.022C735.236 330.221 735.047 330.485 734.934 330.816H733.036V324.753H739.438V326.496Z" fill="white"/>
<path d="M779.532 326.609V324.782H782.945V335.107H780.906V326.609H779.532ZM790.258 327.36C790.164 326.963 789.999 326.666 789.763 326.467C789.536 326.269 789.206 326.17 788.771 326.17C788.12 326.17 787.638 326.434 787.326 326.963C787.024 327.482 786.868 328.332 786.859 329.512C787.086 329.135 787.416 328.842 787.85 328.634C788.285 328.417 788.757 328.309 789.267 328.309C789.881 328.309 790.424 328.441 790.896 328.705C791.368 328.97 791.736 329.357 792.001 329.867C792.265 330.367 792.397 330.971 792.397 331.68C792.397 332.35 792.26 332.95 791.986 333.478C791.722 333.998 791.33 334.404 790.811 334.697C790.291 334.989 789.673 335.136 788.955 335.136C787.973 335.136 787.199 334.918 786.632 334.484C786.075 334.05 785.683 333.445 785.457 332.671C785.24 331.887 785.131 330.924 785.131 329.782C785.131 328.054 785.428 326.75 786.023 325.872C786.618 324.985 787.558 324.541 788.842 324.541C789.833 324.541 790.603 324.81 791.151 325.348C791.698 325.886 792.015 326.557 792.1 327.36H790.258ZM788.814 329.937C788.313 329.937 787.893 330.084 787.553 330.376C787.213 330.669 787.043 331.094 787.043 331.651C787.043 332.208 787.199 332.647 787.511 332.968C787.832 333.29 788.28 333.45 788.856 333.45C789.366 333.45 789.767 333.294 790.06 332.983C790.362 332.671 790.513 332.251 790.513 331.722C790.513 331.174 790.367 330.74 790.074 330.419C789.791 330.098 789.371 329.937 788.814 329.937Z" fill="white"/>
<path d="M830.523 326.609V324.782H833.936V335.107H831.897V326.609H830.523ZM842.467 326.283L838.7 335.107H836.688L840.484 326.51H835.64V324.81H842.467V326.283Z" fill="white"/>
</mask>
<g mask="url(#mask1_28:205)">
<rect x="-50.9905" y="-53.8233" width="963.155" height="447.584" fill="url(#paint2_linear_28:205)"/>
</g>
<mask id="mask2_28:205" style="mask-type:alpha" maskUnits="userSpaceOnUse" x="0" y="44" width="866" height="263">
<path d="M1.4165 305.943L7.1093 296.735C16.2931 281.88 32.5132 272.838 49.9781 272.838V272.838C63.5745 272.838 76.5942 267.344 86.0812 257.605L111.849 231.15C113.136 229.83 114.324 228.417 115.405 226.923V226.923C130.466 206.104 161.445 206.002 176.643 226.721L185.224 238.42C186.548 240.225 188.115 241.839 189.88 243.216V243.216C202.867 253.347 221.955 247.928 227.681 232.485L232.567 219.305L233.27 217.78C242.916 196.83 272.181 195.48 283.715 215.452V215.452C285.19 218.005 287.053 220.314 289.237 222.294L291.212 224.086C302.901 234.686 319.249 238.469 334.406 234.083L350.895 229.31C371.749 223.275 386.784 205.089 388.793 183.472L389.415 176.774C390.703 162.909 399.007 150.672 411.415 144.353V144.353C434.552 132.571 462.651 145.239 469.143 170.379L476.655 199.469C479.988 212.378 487.227 223.941 497.382 232.579L506.254 240.126C523.317 254.64 546.959 258.64 567.846 250.549V250.549C583.362 244.539 595.751 232.455 602.147 217.094L607.123 205.142C616.515 182.583 638.554 167.886 662.99 167.886H674.157C683.786 167.886 692.984 171.878 699.561 178.91V178.91C713.007 193.288 735.696 193.651 749.596 179.71L766.201 163.055C771.825 157.415 776.215 150.668 779.093 143.243L794.217 104.229C798.807 92.3892 806.325 81.9069 816.068 73.7632L826.153 65.3346C831.967 60.4753 838.483 56.5243 845.479 53.6157L865.423 45.325" stroke="#00C2FF" stroke-width="2.83281"/>
</mask>
<g mask="url(#mask2_28:205)">
<rect x="4.24927" y="19.8297" width="861.174" height="287.53" fill="url(#paint3_linear_28:205)"/>
</g>
<path d="M301.417 178.568C301.417 173.819 305.268 169.968 310.017 169.968H383.744C388.494 169.968 392.344 173.819 392.344 178.568V210.509C392.344 215.259 388.494 219.109 383.744 219.109H301.417V178.568Z" fill="black" fill-opacity="0.85"/>
<path d="M314.689 180.148V179.134H316.584V184.865H315.452V180.148H314.689ZM317.538 180.148V179.134H319.433V184.865H318.301V180.148H317.538ZM327.213 184.865H326.113L323.62 181.099V184.865H322.519V179.369H323.62L326.113 183.143V179.369H327.213V184.865ZM330.235 184.936C329.816 184.936 329.439 184.844 329.103 184.661C328.768 184.472 328.503 184.208 328.309 183.867C328.12 183.526 328.026 183.133 328.026 182.687C328.026 182.242 328.123 181.849 328.317 181.508C328.516 181.167 328.786 180.905 329.127 180.722C329.467 180.533 329.847 180.439 330.267 180.439C330.686 180.439 331.066 180.533 331.407 180.722C331.748 180.905 332.015 181.167 332.209 181.508C332.408 181.849 332.508 182.242 332.508 182.687C332.508 183.133 332.405 183.526 332.201 183.867C332.002 184.208 331.729 184.472 331.383 184.661C331.043 184.844 330.66 184.936 330.235 184.936ZM330.235 183.977C330.435 183.977 330.621 183.93 330.794 183.835C330.972 183.736 331.113 183.589 331.218 183.395C331.323 183.201 331.375 182.965 331.375 182.687C331.375 182.273 331.265 181.956 331.045 181.736C330.83 181.511 330.566 181.398 330.251 181.398C329.937 181.398 329.672 181.511 329.457 181.736C329.247 181.956 329.142 182.273 329.142 182.687C329.142 183.102 329.245 183.421 329.449 183.647C329.659 183.867 329.921 183.977 330.235 183.977ZM335.131 183.851L336.232 180.51H337.404L335.792 184.865H334.455L332.851 180.51H334.031L335.131 183.851ZM339.225 183.71L338.305 185.919H337.597L338.108 183.71H339.225ZM341.632 180.148V179.134H343.527V184.865H342.395V180.148H341.632ZM344.96 183.623C345.464 183.204 345.865 182.855 346.163 182.577C346.462 182.294 346.711 182.001 346.91 181.697C347.109 181.393 347.209 181.094 347.209 180.8C347.209 180.533 347.146 180.323 347.02 180.171C346.895 180.019 346.701 179.943 346.439 179.943C346.176 179.943 345.975 180.033 345.833 180.211C345.692 180.384 345.618 180.622 345.613 180.926H344.544C344.565 180.297 344.751 179.82 345.102 179.495C345.458 179.17 345.909 179.008 346.454 179.008C347.052 179.008 347.51 179.168 347.83 179.487C348.15 179.802 348.31 180.219 348.31 180.738C348.31 181.146 348.2 181.537 347.98 181.909C347.759 182.281 347.508 182.606 347.225 182.884C346.942 183.157 346.572 183.487 346.116 183.875H348.436V184.787H344.552V183.969L344.96 183.623ZM349.742 184.92C349.543 184.92 349.378 184.86 349.247 184.74C349.121 184.614 349.058 184.459 349.058 184.276C349.058 184.092 349.121 183.94 349.247 183.82C349.378 183.694 349.543 183.631 349.742 183.631C349.936 183.631 350.096 183.694 350.222 183.82C350.348 183.94 350.411 184.092 350.411 184.276C350.411 184.459 350.348 184.614 350.222 184.74C350.096 184.86 349.936 184.92 349.742 184.92ZM349.742 181.665C349.543 181.665 349.378 181.605 349.247 181.484C349.121 181.359 349.058 181.204 349.058 181.021C349.058 180.837 349.121 180.685 349.247 180.565C349.378 180.439 349.543 180.376 349.742 180.376C349.936 180.376 350.096 180.439 350.222 180.565C350.348 180.685 350.411 180.837 350.411 181.021C350.411 181.204 350.348 181.359 350.222 181.484C350.096 181.605 349.936 181.665 349.742 181.665ZM351.195 181.925C351.195 181.018 351.357 180.308 351.682 179.794C352.012 179.28 352.557 179.024 353.318 179.024C354.078 179.024 354.62 179.28 354.945 179.794C355.275 180.308 355.44 181.018 355.44 181.925C355.44 182.837 355.275 183.552 354.945 184.071C354.62 184.59 354.078 184.85 353.318 184.85C352.557 184.85 352.012 184.59 351.682 184.071C351.357 183.552 351.195 182.837 351.195 181.925ZM354.355 181.925C354.355 181.537 354.329 181.212 354.277 180.95C354.23 180.683 354.13 180.465 353.978 180.297C353.831 180.13 353.611 180.046 353.318 180.046C353.024 180.046 352.801 180.13 352.649 180.297C352.502 180.465 352.403 180.683 352.35 180.95C352.303 181.212 352.28 181.537 352.28 181.925C352.28 182.323 352.303 182.659 352.35 182.931C352.398 183.199 352.497 183.416 352.649 183.584C352.801 183.746 353.024 183.828 353.318 183.828C353.611 183.828 353.834 183.746 353.986 183.584C354.138 183.416 354.237 183.199 354.285 182.931C354.332 182.659 354.355 182.323 354.355 181.925ZM356.278 181.925C356.278 181.018 356.44 180.308 356.765 179.794C357.095 179.28 357.64 179.024 358.4 179.024C359.161 179.024 359.703 179.28 360.028 179.794C360.358 180.308 360.523 181.018 360.523 181.925C360.523 182.837 360.358 183.552 360.028 184.071C359.703 184.59 359.161 184.85 358.4 184.85C357.64 184.85 357.095 184.59 356.765 184.071C356.44 183.552 356.278 182.837 356.278 181.925ZM359.438 181.925C359.438 181.537 359.412 181.212 359.36 180.95C359.313 180.683 359.213 180.465 359.061 180.297C358.914 180.13 358.694 180.046 358.4 180.046C358.107 180.046 357.884 180.13 357.732 180.297C357.585 180.465 357.486 180.683 357.433 180.95C357.386 181.212 357.363 181.537 357.363 181.925C357.363 182.323 357.386 182.659 357.433 182.931C357.481 183.199 357.58 183.416 357.732 183.584C357.884 183.746 358.107 183.828 358.4 183.828C358.694 183.828 358.917 183.746 359.069 183.584C359.221 183.416 359.32 183.199 359.368 182.931C359.415 182.659 359.438 182.323 359.438 181.925ZM363.077 182.672C363.077 182.231 363.163 181.841 363.336 181.5C363.515 181.16 363.753 180.897 364.052 180.714C364.356 180.531 364.694 180.439 365.066 180.439C365.391 180.439 365.674 180.504 365.915 180.635C366.162 180.766 366.358 180.931 366.505 181.131V180.51H367.613V184.865H366.505V184.228C366.363 184.433 366.167 184.603 365.915 184.74C365.669 184.871 365.383 184.936 365.058 184.936C364.691 184.936 364.356 184.842 364.052 184.653C363.753 184.464 363.515 184.2 363.336 183.859C363.163 183.513 363.077 183.117 363.077 182.672ZM366.505 182.687C366.505 182.42 366.452 182.192 366.348 182.003C366.243 181.809 366.101 181.663 365.923 181.563C365.745 181.458 365.554 181.406 365.349 181.406C365.145 181.406 364.956 181.456 364.783 181.555C364.61 181.655 364.468 181.802 364.358 181.996C364.254 182.184 364.201 182.41 364.201 182.672C364.201 182.934 364.254 183.164 364.358 183.364C364.468 183.558 364.61 183.707 364.783 183.812C364.961 183.917 365.15 183.969 365.349 183.969C365.554 183.969 365.745 183.919 365.923 183.82C366.101 183.715 366.243 183.568 366.348 183.379C366.452 183.185 366.505 182.955 366.505 182.687ZM374.098 180.447C374.633 180.447 375.062 180.612 375.387 180.942C375.718 181.267 375.883 181.723 375.883 182.31V184.865H374.782V182.459C374.782 182.119 374.695 181.859 374.523 181.681C374.35 181.498 374.114 181.406 373.815 181.406C373.516 181.406 373.278 181.498 373.099 181.681C372.926 181.859 372.84 182.119 372.84 182.459V184.865H371.739V182.459C371.739 182.119 371.653 181.859 371.48 181.681C371.307 181.498 371.071 181.406 370.772 181.406C370.468 181.406 370.227 181.498 370.049 181.681C369.876 181.859 369.789 182.119 369.789 182.459V184.865H368.689V180.51H369.789V181.036C369.931 180.853 370.112 180.709 370.332 180.604C370.557 180.499 370.804 180.447 371.071 180.447C371.412 180.447 371.716 180.52 371.983 180.667C372.25 180.808 372.457 181.013 372.604 181.28C372.746 181.028 372.95 180.827 373.217 180.675C373.49 180.523 373.783 180.447 374.098 180.447Z" fill="#E4E4E4"/>
<path d="M322.075 198.627H317.299V201.148C317.505 200.892 317.8 200.686 318.183 200.529C318.567 200.362 318.975 200.278 319.407 200.278C320.193 200.278 320.837 200.45 321.338 200.794C321.84 201.138 322.203 201.58 322.429 202.121C322.655 202.652 322.768 203.222 322.768 203.831C322.768 204.961 322.444 205.87 321.795 206.558C321.156 207.246 320.242 207.59 319.053 207.59C317.933 207.59 317.039 207.31 316.37 206.75C315.702 206.19 315.324 205.458 315.235 204.553H317.24C317.328 204.947 317.525 205.261 317.83 205.497C318.144 205.733 318.542 205.851 319.024 205.851C319.604 205.851 320.041 205.669 320.336 205.305C320.631 204.942 320.778 204.46 320.778 203.861C320.778 203.251 320.626 202.789 320.321 202.475C320.026 202.15 319.589 201.988 319.009 201.988C318.596 201.988 318.252 202.092 317.977 202.298C317.702 202.504 317.505 202.779 317.387 203.123H315.412V196.814H322.075V198.627ZM324.988 205.261C325.931 204.475 326.683 203.821 327.243 203.3C327.804 202.77 328.27 202.219 328.644 201.649C329.017 201.079 329.204 200.519 329.204 199.969C329.204 199.467 329.086 199.074 328.85 198.789C328.614 198.504 328.251 198.362 327.759 198.362C327.268 198.362 326.89 198.529 326.624 198.863C326.359 199.187 326.221 199.634 326.211 200.205H324.206C324.246 199.025 324.595 198.131 325.253 197.521C325.921 196.912 326.767 196.607 327.789 196.607C328.909 196.607 329.769 196.907 330.369 197.507C330.968 198.096 331.268 198.878 331.268 199.851C331.268 200.617 331.062 201.349 330.649 202.047C330.236 202.745 329.764 203.354 329.234 203.875C328.703 204.386 328.01 205.006 327.155 205.733H331.504V207.443H324.221V205.91L324.988 205.261ZM345.796 197.3L342.022 207.59H339.516L335.742 197.3H337.954L340.784 205.482L343.6 197.3H345.796ZM348.08 198.45C347.717 198.45 347.412 198.337 347.166 198.111C346.931 197.875 346.813 197.585 346.813 197.241C346.813 196.897 346.931 196.612 347.166 196.386C347.412 196.15 347.717 196.032 348.08 196.032C348.444 196.032 348.744 196.15 348.98 196.386C349.225 196.612 349.348 196.897 349.348 197.241C349.348 197.585 349.225 197.875 348.98 198.111C348.744 198.337 348.444 198.45 348.08 198.45ZM349.098 199.423V207.59H347.034V199.423H349.098ZM358.729 203.33C358.729 203.625 358.709 203.89 358.67 204.126H352.699C352.749 204.716 352.955 205.178 353.319 205.512C353.682 205.846 354.129 206.013 354.66 206.013C355.427 206.013 355.972 205.684 356.297 205.025H358.523C358.287 205.811 357.835 206.46 357.166 206.971C356.498 207.472 355.677 207.723 354.704 207.723C353.918 207.723 353.211 207.551 352.582 207.207C351.962 206.853 351.476 206.357 351.122 205.718C350.778 205.079 350.606 204.342 350.606 203.507C350.606 202.662 350.778 201.92 351.122 201.281C351.466 200.642 351.948 200.15 352.567 199.806C353.186 199.462 353.899 199.29 354.704 199.29C355.481 199.29 356.174 199.458 356.783 199.792C357.402 200.126 357.879 200.603 358.213 201.222C358.557 201.831 358.729 202.534 358.729 203.33ZM356.591 202.74C356.582 202.209 356.39 201.787 356.016 201.472C355.643 201.148 355.186 200.986 354.645 200.986C354.134 200.986 353.702 201.143 353.348 201.458C353.004 201.762 352.793 202.19 352.714 202.74H356.591ZM371.557 199.423L369.169 207.59H366.943L365.454 201.885L363.965 207.59H361.724L359.321 199.423H361.415L362.86 205.644L364.422 199.423H366.604L368.137 205.63L369.582 199.423H371.557ZM375.8 207.723C375.131 207.723 374.532 207.605 374.001 207.369C373.47 207.123 373.048 206.794 372.733 206.381C372.429 205.969 372.261 205.512 372.232 205.01H374.311C374.35 205.325 374.502 205.585 374.768 205.792C375.043 205.998 375.382 206.101 375.785 206.101C376.178 206.101 376.483 206.023 376.699 205.865C376.925 205.708 377.038 205.507 377.038 205.261C377.038 204.996 376.9 204.799 376.625 204.671C376.36 204.534 375.932 204.386 375.343 204.229C374.733 204.082 374.232 203.929 373.839 203.772C373.456 203.615 373.121 203.374 372.836 203.05C372.561 202.725 372.424 202.288 372.424 201.738C372.424 201.286 372.551 200.873 372.807 200.499C373.072 200.126 373.446 199.831 373.927 199.615C374.419 199.399 374.994 199.29 375.652 199.29C376.625 199.29 377.402 199.536 377.981 200.028C378.561 200.509 378.881 201.163 378.94 201.988H376.964C376.935 201.664 376.797 201.408 376.551 201.222C376.316 201.025 375.996 200.927 375.593 200.927C375.22 200.927 374.93 200.996 374.723 201.133C374.527 201.271 374.429 201.463 374.429 201.708C374.429 201.983 374.566 202.195 374.841 202.342C375.116 202.48 375.544 202.622 376.124 202.77C376.714 202.917 377.2 203.069 377.583 203.227C377.967 203.384 378.296 203.63 378.571 203.964C378.856 204.288 379.004 204.721 379.013 205.261C379.013 205.733 378.881 206.155 378.615 206.529C378.36 206.902 377.986 207.197 377.495 207.413C377.013 207.62 376.448 207.723 375.8 207.723Z" fill="#00C2FF"/>
<line y1="-0.708202" x2="290.365" y2="-0.708202" transform="matrix(0.00137306 -0.999999 0.999992 0.0038663 288.636 307.361)" stroke="white" stroke-width="1.4164"/>
<line x1="4.24927" y1="227.34" x2="865.423" y2="227.34" stroke="url(#paint4_linear_28:205)" stroke-width="1.4164"/>
<defs>
<linearGradient id="paint0_linear_28:205" x1="449" y1="7.62939e-06" x2="449" y2="351.268" gradientUnits="userSpaceOnUse">
<stop stop-color="#0E0E0E"/>
<stop offset="1" stop-color="#0E0E0E" stop-opacity="0"/>
</linearGradient>
<linearGradient id="paint1_linear_28:205" x1="0.499998" y1="180" x2="888.5" y2="185.5" gradientUnits="userSpaceOnUse">
<stop stop-opacity="0"/>
<stop offset="1" stop-color="#003464"/>
</linearGradient>
<linearGradient id="paint2_linear_28:205" x1="-12" y1="170" x2="892.5" y2="170" gradientUnits="userSpaceOnUse">
<stop stop-color="#535353" stop-opacity="0"/>
<stop offset="1" stop-color="#74CDFF"/>
</linearGradient>
<linearGradient id="paint3_linear_28:205" x1="4" y1="164" x2="865" y2="172" gradientUnits="userSpaceOnUse">
<stop stop-color="#2E2E2E" stop-opacity="0"/>
<stop offset="0.447672" stop-color="#00C2FF"/>
</linearGradient>
<linearGradient id="paint4_linear_28:205" x1="865" y1="228.002" x2="-9.50002" y2="228.003" gradientUnits="userSpaceOnUse">
<stop offset="0.660927" stop-color="white"/>
<stop offset="1" stop-opacity="0.38"/>
</linearGradient>
</defs>
</svg>
