<svg width="50" height="50" viewBox="0 0 50 50" fill="none" xmlns="http://www.w3.org/2000/svg">
<circle cx="25" cy="25" r="25" fill="#304136"/>
<path d="M35.9555 26.6667C35.6135 26.6667 35.2856 26.8094 35.0438 27.0633C34.802 27.3173 34.6661 27.6617 34.6661 28.0209V33.4375C34.6661 33.7967 34.5303 34.1411 34.2885 34.3951C34.0467 34.649 33.7188 34.7917 33.3768 34.7917H15.3262C14.9843 34.7917 14.6563 34.649 14.4145 34.3951C14.1727 34.1411 14.0369 33.7967 14.0369 33.4375V20.4511L21.6181 28.4271C22.3434 29.1879 23.3265 29.6152 24.3515 29.6152C25.3765 29.6152 26.3596 29.1879 27.0849 28.4271L29.1994 26.2063C29.4422 25.9513 29.5786 25.6054 29.5786 25.2448C29.5786 24.8842 29.4422 24.5383 29.1994 24.2834C28.9566 24.0284 28.6273 23.8851 28.284 23.8851C27.9406 23.8851 27.6113 24.0284 27.3685 24.2834L25.254 26.5042C25.013 26.7523 24.689 26.8913 24.3515 26.8913C24.014 26.8913 23.69 26.7523 23.449 26.5042L15.8549 18.5417H24.3515C24.6935 18.5417 25.0214 18.399 25.2632 18.1451C25.505 17.8911 25.6408 17.5467 25.6408 17.1875C25.6408 16.8284 25.505 16.4839 25.2632 16.23C25.0214 15.976 24.6935 15.8334 24.3515 15.8334H15.3262C14.3004 15.8334 13.3165 16.2614 12.5912 17.0232C11.8658 17.7851 11.4583 18.8184 11.4583 19.8959V33.4375C11.4583 34.515 11.8658 35.5483 12.5912 36.3101C13.3165 37.072 14.3004 37.5 15.3262 37.5H33.3768C34.4027 37.5 35.3865 37.072 36.1119 36.3101C36.8373 35.5483 37.2448 34.515 37.2448 33.4375V28.0209C37.2448 27.6617 37.1089 27.3173 36.8671 27.0633C36.6254 26.8094 36.2974 26.6667 35.9555 26.6667ZM38.1602 17.5802C38.0403 17.4533 37.8977 17.3526 37.7406 17.2838C37.5835 17.2151 37.415 17.1797 37.2448 17.1797C37.0746 17.1797 36.9061 17.2151 36.7489 17.2838C36.5918 17.3526 36.4492 17.4533 36.3294 17.5802L34.6661 19.3406V11.7709C34.6661 11.4117 34.5303 11.0673 34.2885 10.8133C34.0467 10.5594 33.7188 10.4167 33.3768 10.4167C33.0349 10.4167 32.7069 10.5594 32.4651 10.8133C32.2233 11.0673 32.0875 11.4117 32.0875 11.7709V19.3406L30.4242 17.5802C30.304 17.454 30.1613 17.3538 30.0042 17.2855C29.8472 17.2172 29.6788 17.182 29.5088 17.182C29.1655 17.182 28.8362 17.3252 28.5934 17.5802C28.4732 17.7065 28.3778 17.8564 28.3128 18.0213C28.2477 18.1863 28.2142 18.3631 28.2142 18.5417C28.2142 18.9023 28.3506 19.2482 28.5934 19.5031L32.4614 23.5656C32.584 23.6889 32.7286 23.7856 32.8869 23.85C33.0412 23.9217 33.2081 23.9587 33.3768 23.9587C33.5455 23.9587 33.7124 23.9217 33.8667 23.85C34.025 23.7856 34.1696 23.6889 34.2922 23.5656L38.1602 19.5031C38.2811 19.3773 38.377 19.2275 38.4424 19.0625C38.5079 18.8975 38.5416 18.7205 38.5416 18.5417C38.5416 18.3629 38.5079 18.1859 38.4424 18.0209C38.377 17.8559 38.2811 17.7061 38.1602 17.5802V17.5802Z" fill="#00B528"/>
</svg>
