<svg width="39" height="40" viewBox="0 0 39 40" fill="none" xmlns="http://www.w3.org/2000/svg">
<rect x="1.49463" y="38.75" width="37.5" height="35.5952" rx="17.7976" transform="rotate(-90 1.49463 38.75)" stroke="#00FF19" stroke-width="2.5"/>
<path d="M24.7442 28.0017C25.4219 28.0503 26.0119 27.5227 26.062 26.8234L26.8784 15.4268C26.9285 14.7274 26.4198 14.1212 25.7421 14.0726C25.0645 14.0241 24.4745 14.5516 24.4244 15.251L23.6987 25.3813L13.8825 24.678C13.2049 24.6295 12.6149 25.1571 12.5648 25.8564C12.5147 26.5558 13.0234 27.162 13.7011 27.2106L24.7442 28.0017ZM12.547 14.035L23.9032 27.5687L25.7667 25.9022L14.4106 12.3685L12.547 14.035Z" fill="#00FF19"/>
</svg>
