<svg width="20" height="18" viewBox="0 0 20 18" fill="none" xmlns="http://www.w3.org/2000/svg">
<path d="M17.3994 10.7038C17.1702 10.7038 16.9503 10.7948 16.7883 10.9569C16.6262 11.119 16.5351 11.3388 16.5351 11.568V15.0251C16.5351 15.2543 16.4441 15.4741 16.282 15.6362C16.1199 15.7983 15.9001 15.8893 15.6709 15.8893H3.57128C3.34207 15.8893 3.12224 15.7983 2.96016 15.6362C2.79808 15.4741 2.70703 15.2543 2.70703 15.0251V6.73684L7.78886 11.8273C8.275 12.3129 8.93399 12.5856 9.62108 12.5856C10.3082 12.5856 10.9672 12.3129 11.4533 11.8273L12.8707 10.4099C13.0334 10.2472 13.1249 10.0265 13.1249 9.79631C13.1249 9.56616 13.0334 9.34543 12.8707 9.18269C12.7079 9.01995 12.4872 8.92852 12.2571 8.92852C12.0269 8.92852 11.8062 9.01995 11.6434 9.18269L10.2261 10.6001C10.0645 10.7584 9.8473 10.8471 9.62108 10.8471C9.39486 10.8471 9.17765 10.7584 9.0161 10.6001L3.92563 5.51824H9.62108C9.85029 5.51824 10.0701 5.42719 10.2322 5.26511C10.3943 5.10303 10.4853 4.8832 10.4853 4.65398C10.4853 4.42477 10.3943 4.20494 10.2322 4.04286C10.0701 3.88078 9.85029 3.78973 9.62108 3.78973H3.57128C2.88364 3.78973 2.22416 4.06289 1.73792 4.54913C1.25168 5.03537 0.978516 5.69485 0.978516 6.3825V15.0251C0.978516 15.7127 1.25168 16.3722 1.73792 16.8584C2.22416 17.3447 2.88364 17.6178 3.57128 17.6178H15.6709C16.3585 17.6178 17.018 17.3447 17.5042 16.8584C17.9905 16.3722 18.2636 15.7127 18.2636 15.0251V11.568C18.2636 11.3388 18.1726 11.119 18.0105 10.9569C17.8484 10.7948 17.6286 10.7038 17.3994 10.7038ZM18.8773 4.90462C18.7969 4.82361 18.7013 4.75932 18.596 4.71544C18.4907 4.67156 18.3777 4.64897 18.2636 4.64897C18.1495 4.64897 18.0366 4.67156 17.9313 4.71544C17.826 4.75932 17.7304 4.82361 17.65 4.90462L16.5351 6.02815V1.19696C16.5351 0.967744 16.4441 0.747917 16.282 0.585837C16.1199 0.423758 15.9001 0.332703 15.6709 0.332703C15.4417 0.332703 15.2218 0.423758 15.0598 0.585837C14.8977 0.747917 14.8066 0.967744 14.8066 1.19696V6.02815L13.6917 4.90462C13.6111 4.82404 13.5155 4.76012 13.4102 4.71651C13.3049 4.67289 13.1921 4.65045 13.0781 4.65045C12.848 4.65045 12.6272 4.74188 12.4645 4.90462C12.3839 4.9852 12.32 5.08087 12.2764 5.18615C12.2328 5.29144 12.2103 5.40428 12.2103 5.51824C12.2103 5.74839 12.3017 5.96912 12.4645 6.13186L15.0573 8.72463C15.1394 8.80331 15.2364 8.86499 15.3425 8.90613C15.4459 8.95185 15.5578 8.97547 15.6709 8.97547C15.784 8.97547 15.8958 8.95185 15.9993 8.90613C16.1054 8.86499 16.2023 8.80331 16.2845 8.72463L18.8773 6.13186C18.9583 6.05152 19.0226 5.95593 19.0664 5.85061C19.1103 5.7453 19.1329 5.63233 19.1329 5.51824C19.1329 5.40415 19.1103 5.29119 19.0664 5.18587C19.0226 5.08055 18.9583 4.98496 18.8773 4.90462V4.90462Z" fill="#00B528"/>
</svg>
