<svg width="27" height="26" viewBox="0 0 27 26" fill="none" xmlns="http://www.w3.org/2000/svg">
<rect x="1.52845" y="25.3211" width="24.5284" height="24.5284" rx="12.2642" transform="rotate(-90 1.52845 25.3211)" stroke="#EC5656" stroke-width="1.29097"/>
<path d="M17.6637 9.13435C17.6364 8.77891 17.3261 8.51293 16.9706 8.54027L11.1784 8.98583C10.8229 9.01317 10.557 9.32348 10.5843 9.67892C10.6116 10.0344 10.922 10.3003 11.2774 10.273L16.4261 9.87694L16.8221 15.0256C16.8495 15.3811 17.1598 15.647 17.5152 15.6197C17.8706 15.5923 18.1366 15.282 18.1093 14.9266L17.6637 9.13435ZM9.76441 18.6407L17.5102 9.60393L16.5301 8.76378L8.78423 17.8006L9.76441 18.6407Z" fill="#EC5656"/>
</svg>
