<svg width="18" height="17" viewBox="0 0 18 17" fill="none" xmlns="http://www.w3.org/2000/svg">
<path d="M16.0837 10.0532C15.8715 10.0532 15.668 10.1375 15.5179 10.2876C15.3679 10.4376 15.2836 10.6411 15.2836 10.8533V14.0536C15.2836 14.2658 15.1993 14.4693 15.0493 14.6193C14.8992 14.7694 14.6957 14.8537 14.4835 14.8537H3.28254C3.07035 14.8537 2.86685 14.7694 2.7168 14.6193C2.56676 14.4693 2.48247 14.2658 2.48247 14.0536V6.38092L7.18689 11.0933C7.63693 11.5428 8.24698 11.7953 8.88304 11.7953C9.5191 11.7953 10.1291 11.5428 10.5792 11.0933L11.8913 9.78122C12.042 9.63056 12.1266 9.42623 12.1266 9.21317C12.1266 9.00011 12.042 8.79577 11.8913 8.64512C11.7407 8.49446 11.5363 8.40982 11.3233 8.40982C11.1102 8.40982 10.9059 8.49446 10.7552 8.64512L9.44309 9.95723C9.29353 10.1038 9.09246 10.1859 8.88304 10.1859C8.67362 10.1859 8.47254 10.1038 8.32299 9.95723L3.61057 5.25281H8.88304C9.09523 5.25281 9.29873 5.16852 9.44877 5.01848C9.59882 4.86844 9.68311 4.66494 9.68311 4.45274C9.68311 4.24055 9.59882 4.03705 9.44877 3.88701C9.29873 3.73696 9.09523 3.65267 8.88304 3.65267H3.28254C2.64596 3.65267 2.03546 3.90555 1.58533 4.35568C1.1352 4.80581 0.882324 5.41631 0.882324 6.05289V14.0536C0.882324 14.6902 1.1352 15.3007 1.58533 15.7508C2.03546 16.2009 2.64596 16.4538 3.28254 16.4538H14.4835C15.1201 16.4538 15.7306 16.2009 16.1807 15.7508C16.6309 15.3007 16.8838 14.6902 16.8838 14.0536V10.8533C16.8838 10.6411 16.7995 10.4376 16.6494 10.2876C16.4994 10.1375 16.2959 10.0532 16.0837 10.0532ZM17.4518 3.08462L15.0516 0.684406C14.9755 0.611567 14.8858 0.55447 14.7876 0.516391C14.5928 0.43637 14.3743 0.43637 14.1795 0.516391C14.0813 0.55447 13.9916 0.611567 13.9155 0.684406L11.5153 3.08462C11.3646 3.23528 11.28 3.43961 11.28 3.65267C11.28 3.86573 11.3646 4.07007 11.5153 4.22072C11.6659 4.37138 11.8703 4.45602 12.0833 4.45602C12.2964 4.45602 12.5007 4.37138 12.6514 4.22072L13.6835 3.18063V7.65303C13.6835 7.86522 13.7678 8.06872 13.9178 8.21876C14.0678 8.36881 14.2713 8.4531 14.4835 8.4531C14.6957 8.4531 14.8992 8.36881 15.0493 8.21876C15.1993 8.06872 15.2836 7.86522 15.2836 7.65303V3.18063L16.3157 4.22072C16.3901 4.29571 16.4786 4.35523 16.5761 4.39585C16.6736 4.43647 16.7781 4.45738 16.8838 4.45738C16.9894 4.45738 17.0939 4.43647 17.1914 4.39585C17.2889 4.35523 17.3774 4.29571 17.4518 4.22072C17.5268 4.14635 17.5863 4.05786 17.6269 3.96036C17.6676 3.86286 17.6885 3.75829 17.6885 3.65267C17.6885 3.54705 17.6676 3.44248 17.6269 3.34498C17.5863 3.24749 17.5268 3.159 17.4518 3.08462Z" fill="#FF5C00"/>
</svg>
