<svg width="50" height="50" viewBox="0 0 50 50" fill="none" xmlns="http://www.w3.org/2000/svg">
<circle cx="25" cy="25" r="25" fill="#413730"/>
<path d="M35.9555 27.7057C35.6135 27.7057 35.2856 27.8484 35.0438 28.1024C34.802 28.3564 34.6661 28.7009 34.6661 29.0602V34.4782C34.6661 34.8374 34.5303 35.182 34.2885 35.436C34.0467 35.69 33.7188 35.8327 33.3768 35.8327H15.3262C14.9843 35.8327 14.6563 35.69 14.4145 35.436C14.1727 35.182 14.0369 34.8374 14.0369 34.4782V21.4885L21.6181 29.4665C22.3434 30.2275 23.3265 30.6549 24.3515 30.6549C25.3765 30.6549 26.3596 30.2275 27.0849 29.4665L29.1994 27.2451C29.4422 26.9901 29.5786 26.6441 29.5786 26.2834C29.5786 25.9227 29.4422 25.5768 29.1994 25.3217C28.9566 25.0667 28.6273 24.9234 28.284 24.9234C27.9406 24.9234 27.6113 25.0667 27.3685 25.3217L25.254 27.5431C25.013 27.7913 24.689 27.9303 24.3515 27.9303C24.014 27.9303 23.69 27.7913 23.449 27.5431L15.8549 19.5786H24.3515C24.6935 19.5786 25.0214 19.4359 25.2632 19.1819C25.505 18.9279 25.6408 18.5834 25.6408 18.2241C25.6408 17.8649 25.505 17.5204 25.2632 17.2664C25.0214 17.0123 24.6935 16.8696 24.3515 16.8696H15.3262C14.3004 16.8696 13.3165 17.2978 12.5912 18.0598C11.8658 18.8219 11.4583 19.8554 11.4583 20.9332V34.4782C11.4583 35.5559 11.8658 36.5895 12.5912 37.3515C13.3165 38.1136 14.3004 38.5417 15.3262 38.5417H33.3768C34.4027 38.5417 35.3865 38.1136 36.1119 37.3515C36.8373 36.5895 37.2448 35.5559 37.2448 34.4782V29.0602C37.2448 28.7009 37.1089 28.3564 36.8671 28.1024C36.6254 27.8484 36.2974 27.7057 35.9555 27.7057ZM38.1602 15.9079L34.2922 11.8444C34.1696 11.7211 34.025 11.6244 33.8667 11.56C33.5528 11.4245 33.2008 11.4245 32.8869 11.56C32.7286 11.6244 32.584 11.7211 32.4614 11.8444L28.5934 15.9079C28.3506 16.163 28.2142 16.5089 28.2142 16.8696C28.2142 17.2303 28.3506 17.5763 28.5934 17.8313C28.8362 18.0864 29.1655 18.2297 29.5088 18.2297C29.8522 18.2297 30.1815 18.0864 30.4242 17.8313L32.0875 16.0705V23.6422C32.0875 24.0014 32.2233 24.3459 32.4651 24.5999C32.7069 24.854 33.0349 24.9967 33.3768 24.9967C33.7188 24.9967 34.0467 24.854 34.2885 24.5999C34.5303 24.3459 34.6661 24.0014 34.6661 23.6422V16.0705L36.3294 17.8313C36.4492 17.9583 36.5918 18.0591 36.7489 18.1278C36.9061 18.1966 37.0746 18.232 37.2448 18.232C37.415 18.232 37.5835 18.1966 37.7406 18.1278C37.8977 18.0591 38.0403 17.9583 38.1602 17.8313C38.2811 17.7054 38.377 17.5556 38.4424 17.3905C38.5079 17.2255 38.5416 17.0484 38.5416 16.8696C38.5416 16.6908 38.5079 16.5138 38.4424 16.3487C38.377 16.1837 38.2811 16.0339 38.1602 15.9079Z" fill="#FF5C00"/>
</svg>
