<svg width="39" height="40" viewBox="0 0 39 40" fill="none" xmlns="http://www.w3.org/2000/svg">
<rect x="1.6142" y="38.75" width="37.5" height="35.5952" rx="17.7976" transform="rotate(-90 1.6142 38.75)" stroke="#FF002E" stroke-width="2.5"/>
<path d="M26.1721 13.1241C26.1273 12.4191 25.5457 11.8822 24.8733 11.925L13.915 12.6227C13.2426 12.6655 12.7338 13.2718 12.7787 13.9769C12.8236 14.682 13.4051 15.2189 14.0776 15.176L23.8183 14.5559L24.4686 24.7692C24.5134 25.4742 25.095 26.0111 25.7674 25.9683C26.4399 25.9255 26.9486 25.3192 26.9037 24.6141L26.1721 13.1241ZM14.5169 27.5833L25.873 14.0496L24.0361 12.3537L12.68 25.8874L14.5169 27.5833Z" fill="#FF002E"/>
</svg>
