<svg width="50" height="50" viewBox="0 0 50 50" fill="none" xmlns="http://www.w3.org/2000/svg">
<path d="M25 10C24.337 10 23.7011 10.2634 23.2322 10.7322C22.7634 11.2011 22.5 11.837 22.5 12.5V37.5C22.5 38.163 22.7634 38.7989 23.2322 39.2678C23.7011 39.7366 24.337 40 25 40C25.663 40 26.2989 39.7366 26.7678 39.2678C27.2366 38.7989 27.5 38.163 27.5 37.5V12.5C27.5 11.837 27.2366 11.2011 26.7678 10.7322C26.2989 10.2634 25.663 10 25 10ZM12.5 25C11.837 25 11.2011 25.2634 10.7322 25.7322C10.2634 26.2011 10 26.837 10 27.5V37.5C10 38.163 10.2634 38.7989 10.7322 39.2678C11.2011 39.7366 11.837 40 12.5 40C13.163 40 13.7989 39.7366 14.2678 39.2678C14.7366 38.7989 15 38.163 15 37.5V27.5C15 26.837 14.7366 26.2011 14.2678 25.7322C13.7989 25.2634 13.163 25 12.5 25ZM37.5 20C36.837 20 36.2011 20.2634 35.7322 20.7322C35.2634 21.2011 35 21.837 35 22.5V37.5C35 38.163 35.2634 38.7989 35.7322 39.2678C36.2011 39.7366 36.837 40 37.5 40C38.163 40 38.7989 39.7366 39.2678 39.2678C39.7366 38.7989 40 38.163 40 37.5V22.5C40 21.837 39.7366 21.2011 39.2678 20.7322C38.7989 20.2634 38.163 20 37.5 20ZM42.5 0H7.5C5.51088 0 3.60322 0.790177 2.1967 2.1967C0.790177 3.60322 0 5.51088 0 7.5V42.5C0 44.4891 0.790177 46.3968 2.1967 47.8033C3.60322 49.2098 5.51088 50 7.5 50H42.5C44.4891 50 46.3968 49.2098 47.8033 47.8033C49.2098 46.3968 50 44.4891 50 42.5V7.5C50 5.51088 49.2098 3.60322 47.8033 2.1967C46.3968 0.790177 44.4891 0 42.5 0ZM45 42.5C45 43.163 44.7366 43.7989 44.2678 44.2678C43.7989 44.7366 43.163 45 42.5 45H7.5C6.83696 45 6.20107 44.7366 5.73223 44.2678C5.26339 43.7989 5 43.163 5 42.5V7.5C5 6.83696 5.26339 6.20107 5.73223 5.73223C6.20107 5.26339 6.83696 5 7.5 5H42.5C43.163 5 43.7989 5.26339 44.2678 5.73223C44.7366 6.20107 45 6.83696 45 7.5V42.5Z" fill="#869ACE"/>
</svg>
