<svg width="50" height="50" viewBox="0 0 50 50" fill="none" xmlns="http://www.w3.org/2000/svg">
<path d="M47.8724 2.16462C46.9172 1.19132 45.7059 0.508171 44.3786 0.194159C43.0513 -0.119852 41.6622 -0.051898 40.372 0.390164L4.99492 12.2115C3.56812 12.6784 2.32148 13.5765 1.42709 14.7818C0.532705 15.9872 0.0346719 17.4403 0.00174485 18.9407C-0.0311822 20.4411 0.402621 21.9147 1.24327 23.1581C2.08392 24.4015 3.28996 25.3534 4.6949 25.8823L17.7957 30.8808C18.094 30.9948 18.3656 31.1691 18.5936 31.3926C18.8215 31.6162 19.001 31.8844 19.1207 32.1804L24.121 45.3013C24.63 46.6859 25.5536 47.8799 26.7661 48.7207C27.9785 49.5615 29.4208 50.0082 30.8964 49.9999H31.0714C32.5741 49.9725 34.0305 49.4759 35.2365 48.5795C36.4426 47.6831 37.3378 46.432 37.7968 45.0014L49.6225 9.58733C50.0526 8.31007 50.1166 6.938 49.8073 5.62626C49.498 4.31453 48.8278 3.11545 47.8724 2.16462V2.16462ZM44.9972 8.01282L33.0465 43.4519C32.9078 43.9004 32.6291 44.2928 32.2512 44.5716C31.8733 44.8504 31.4161 45.001 30.9464 45.0014C30.4795 45.0091 30.0213 44.8745 29.6328 44.6156C29.2443 44.3566 28.9438 43.9856 28.7713 43.5519L23.771 30.4309C23.4085 29.4775 22.8494 28.611 22.1301 27.8877C21.4108 27.1643 20.5473 26.6003 19.5958 26.2322L6.47 21.2337C6.02721 21.0715 5.64658 20.7744 5.3819 20.3842C5.11721 19.9941 4.98184 19.5306 4.99492 19.0594C4.9953 18.5899 5.14597 18.1329 5.42488 17.7551C5.70379 17.3774 6.09631 17.0988 6.54501 16.9601L41.997 5.1387C42.4041 4.97287 42.8504 4.92845 43.2822 5.0108C43.7139 5.09316 44.1126 5.29877 44.4299 5.60278C44.7473 5.90678 44.9697 6.29617 45.0704 6.72387C45.1711 7.15156 45.1456 7.59925 44.9972 8.01282V8.01282Z" fill="#869ACE"/>
</svg>
