<svg width="50" height="51" viewBox="0 0 50 51" fill="none" xmlns="http://www.w3.org/2000/svg">
<path d="M42.4874 24.0393C41.8245 24.0393 41.1888 24.2907 40.7201 24.738C40.2514 25.1854 39.9881 25.7921 39.9881 26.4247V32.1259L36.2392 28.5955C34.922 27.3884 33.1667 26.7143 31.3407 26.7143C29.5146 26.7143 27.7594 27.3884 26.4421 28.5955L24.6927 30.2653L18.4695 24.3256C17.1677 23.0903 15.4066 22.397 13.571 22.397C11.7353 22.397 9.97423 23.0903 8.67242 24.3256L4.99852 27.8798V14.4977C4.99852 13.8651 5.26183 13.2583 5.73053 12.811C6.19923 12.3636 6.83493 12.1123 7.49777 12.1123H22.4933C23.1562 12.1123 23.7919 11.861 24.2606 11.4136C24.7293 10.9663 24.9926 10.3596 24.9926 9.72691C24.9926 9.09426 24.7293 8.48752 24.2606 8.04017C23.7919 7.59282 23.1562 7.3415 22.4933 7.3415H7.49777C5.50924 7.3415 3.60215 8.09546 2.19605 9.43751C0.789942 10.7796 0 12.5998 0 14.4977V43.1226C0 45.0205 0.789942 46.8408 2.19605 48.1828C3.60215 49.5249 5.50924 50.2788 7.49777 50.2788H37.4889C39.4774 50.2788 41.3845 49.5249 42.7906 48.1828C44.1967 46.8408 44.9866 45.0205 44.9866 43.1226V26.4247C44.9866 25.7921 44.7233 25.1854 44.2546 24.738C43.7859 24.2907 43.1502 24.0393 42.4874 24.0393ZM7.49777 45.508C6.83493 45.508 6.19923 45.2567 5.73053 44.8093C5.26183 44.362 4.99852 43.7552 4.99852 43.1226V34.6305L12.1964 27.6652C12.3781 27.4863 12.5956 27.344 12.8361 27.2469C13.0765 27.1498 13.3349 27.0997 13.596 27.0997C13.857 27.0997 14.1154 27.1498 14.3559 27.2469C14.5963 27.344 14.8138 27.4863 14.9955 27.6652L22.9182 35.2269L33.565 45.3887L7.49777 45.508ZM39.9881 43.1226C39.9795 43.5821 39.8319 44.0294 39.5633 44.4107L28.2166 33.6287L29.9661 31.9827C30.3314 31.6361 30.8256 31.4415 31.3407 31.4415C31.8558 31.4415 32.35 31.6361 32.7153 31.9827L39.9881 38.8766V43.1226ZM49.2854 6.74515L43.2372 0.972467C42.7689 0.528183 42.1354 0.278809 41.4752 0.278809C40.8149 0.278809 40.1815 0.528183 39.7132 0.972467L28.2666 11.8976C28.0259 12.1166 27.8334 12.3791 27.7004 12.6699C27.5674 12.9607 27.4965 13.274 27.4918 13.5913V19.3639C27.4918 19.9966 27.7552 20.6033 28.2239 21.0507C28.6926 21.498 29.3282 21.7494 29.9911 21.7494H36.0393C36.695 21.7467 37.3233 21.4983 37.7888 21.0576L49.2354 10.1324C49.4729 9.91384 49.6628 9.65251 49.794 9.36353C49.9252 9.07455 49.9951 8.76364 49.9998 8.44873C50.0044 8.13382 49.9437 7.82114 49.821 7.52875C49.6984 7.23636 49.5164 6.97004 49.2854 6.74515V6.74515ZM34.9896 16.9785H32.4904V14.5931L41.4877 6.02953L43.9869 8.41493L34.9896 16.9785Z" fill="#869ACE"/>
</svg>
