<svg width="50" height="50" viewBox="0 0 50 50" fill="none" xmlns="http://www.w3.org/2000/svg">
<path d="M25 0C18.591 0.0182805 12.4337 2.49728 7.8 6.925V2.5C7.8 1.83696 7.53661 1.20107 7.06777 0.732233C6.59892 0.263392 5.96304 0 5.3 0C4.63696 0 4.00107 0.263392 3.53223 0.732233C3.06339 1.20107 2.8 1.83696 2.8 2.5V13.75C2.8 14.413 3.06339 15.0489 3.53223 15.5178C4.00107 15.9866 4.63696 16.25 5.3 16.25H16.55C17.213 16.25 17.8489 15.9866 18.3178 15.5178C18.7866 15.0489 19.05 14.413 19.05 13.75C19.05 13.087 18.7866 12.4511 18.3178 11.9822C17.8489 11.5134 17.213 11.25 16.55 11.25H10.55C13.7644 7.89089 18.0488 5.75664 22.6663 5.21417C27.2839 4.67171 31.9462 5.75494 35.8516 8.27761C39.757 10.8003 42.6616 14.6048 44.0658 19.037C45.47 23.4692 45.2862 28.2521 43.546 32.5635C41.8058 36.8748 38.6179 40.4452 34.5304 42.6608C30.4429 44.8763 25.7112 45.5985 21.1489 44.7033C16.5866 43.8081 12.4787 41.3514 9.53147 37.7555C6.58429 34.1596 4.98196 29.6493 5 25C5 24.337 4.73661 23.7011 4.26777 23.2322C3.79893 22.7634 3.16304 22.5 2.5 22.5C1.83696 22.5 1.20107 22.7634 0.732233 23.2322C0.263392 23.7011 0 24.337 0 25C0 29.9445 1.46622 34.778 4.21326 38.8892C6.96029 43.0005 10.8648 46.2048 15.4329 48.097C20.0011 49.9892 25.0277 50.4843 29.8772 49.5196C34.7268 48.555 39.1813 46.174 42.6777 42.6777C46.174 39.1813 48.555 34.7268 49.5196 29.8772C50.4843 25.0277 49.9892 20.0011 48.097 15.4329C46.2048 10.8648 43.0005 6.96029 38.8892 4.21326C34.778 1.46622 29.9445 0 25 0ZM25 15C24.337 15 23.7011 15.2634 23.2322 15.7322C22.7634 16.2011 22.5 16.837 22.5 17.5V25C22.5 25.663 22.7634 26.2989 23.2322 26.7678C23.7011 27.2366 24.337 27.5 25 27.5H30C30.663 27.5 31.2989 27.2366 31.7678 26.7678C32.2366 26.2989 32.5 25.663 32.5 25C32.5 24.337 32.2366 23.7011 31.7678 23.2322C31.2989 22.7634 30.663 22.5 30 22.5H27.5V17.5C27.5 16.837 27.2366 16.2011 26.7678 15.7322C26.2989 15.2634 25.663 15 25 15Z" fill="#869ACE"/>
</svg>
