<svg width="50" height="50" viewBox="0 0 50 50" fill="none" xmlns="http://www.w3.org/2000/svg">
<path d="M42.5 25H25V7.5C25 6 24 5 22.5 5C10 5 0 15 0 27.5C0 40 10 50 22.5 50C35 50 45 40 45 27.5C45 26 44 25 42.5 25ZM25 44.75C15.5 46.25 6.5 39.5 5.25 30C3.75 20.5 10.5 11.5 20 10.25V27.5C20 29 21 30 22.5 30H39.75C38.75 37.75 32.75 43.75 25 44.75ZM32.5 0C31 0 30 1 30 2.5V17.5C30 19 31 20 32.5 20H47.5C49 20 50 19 50 17.5C50 7.75 42.25 0 32.5 0ZM35 15V5.25C40 6.25 43.75 10 44.75 15H35Z" fill="#869ACE"/>
</svg>
