<svg width="50" height="50" viewBox="0 0 50 50" fill="none" xmlns="http://www.w3.org/2000/svg">
<path d="M32.7293 26.4792C34.7718 24.8722 36.2626 22.6686 36.9944 20.1749C37.7261 17.6812 37.6624 15.0214 36.8122 12.5656C35.9619 10.1097 34.3673 7.97998 32.2503 6.47262C30.1332 4.96525 27.599 4.15522 25.0001 4.15522C22.4013 4.15522 19.867 4.96525 17.75 6.47262C15.6329 7.97998 14.0383 10.1097 13.1881 12.5656C12.3378 15.0214 12.2741 17.6812 13.0059 20.1749C13.7376 22.6686 15.2285 24.8722 17.2709 26.4792C13.7711 27.8813 10.7174 30.207 8.43531 33.2082C6.15324 36.2093 4.72837 39.7736 4.31262 43.5208C4.28252 43.7944 4.30661 44.0713 4.3835 44.3355C4.46039 44.5998 4.58859 44.8464 4.76076 45.0611C5.10849 45.4948 5.61425 45.7726 6.16678 45.8333C6.71932 45.8941 7.27336 45.7329 7.70704 45.3852C8.14072 45.0375 8.4185 44.5317 8.47928 43.9792C8.93675 39.9067 10.8786 36.1454 13.9339 33.4142C16.9892 30.6829 20.9437 29.173 25.0418 29.173C29.1399 29.173 33.0944 30.6829 36.1497 33.4142C39.2049 36.1454 41.1468 39.9067 41.6043 43.9792C41.6609 44.4911 41.9052 44.9639 42.2899 45.3063C42.6747 45.6487 43.1726 45.8365 43.6876 45.8333H43.9168C44.4629 45.7705 44.962 45.4944 45.3054 45.0651C45.6489 44.6358 45.8087 44.0883 45.7501 43.5417C45.3324 39.7838 43.8999 36.2104 41.6061 33.2046C39.3122 30.1988 36.2437 27.8739 32.7293 26.4792V26.4792ZM25.0001 25C23.3519 25 21.7408 24.5113 20.3704 23.5956C19 22.6799 17.9318 21.3784 17.3011 19.8557C16.6704 18.333 16.5054 16.6574 16.8269 15.0409C17.1484 13.4244 17.9421 11.9395 19.1076 10.7741C20.273 9.60867 21.7579 8.815 23.3744 8.49346C24.9909 8.17191 26.6664 8.33694 28.1891 8.96767C29.7119 9.5984 31.0133 10.6665 31.929 12.0369C32.8447 13.4073 33.3334 15.0185 33.3334 16.6667C33.3334 18.8768 32.4555 20.9964 30.8927 22.5592C29.3299 24.122 27.2103 25 25.0001 25Z" fill="#869ACE"/>
</svg>
