<svg width="50" height="50" viewBox="0 0 50 50" fill="none" xmlns="http://www.w3.org/2000/svg">
<path d="M48.3 18.875L43.575 17.3L45.8 12.85C46.0255 12.3842 46.101 11.8599 46.0159 11.3494C45.9308 10.839 45.6894 10.3675 45.325 10L40 4.67501C39.6306 4.30522 39.1546 4.06052 38.6389 3.97532C38.1232 3.89012 37.5937 3.9687 37.125 4.20001L32.675 6.42501L31.1 1.70001C30.9337 1.20749 30.6179 0.779072 30.1967 0.474378C29.7755 0.169684 29.2698 0.00386918 28.75 8.33384e-06H21.25C20.7259 -0.00134457 20.2146 0.162056 19.7884 0.467113C19.3622 0.772171 19.0427 1.20346 18.875 1.70001L17.3 6.42501L12.85 4.20001C12.3842 3.97446 11.8599 3.89902 11.3494 3.9841C10.839 4.06918 10.3675 4.31058 10 4.67501L4.67501 10C4.30522 10.3694 4.06052 10.8454 3.97532 11.3611C3.89012 11.8768 3.9687 12.4063 4.20001 12.875L6.42501 17.325L1.70001 18.9C1.20749 19.0663 0.779072 19.3821 0.474378 19.8033C0.169684 20.2245 0.00386918 20.7302 8.33384e-06 21.25V28.75C-0.00134457 29.2741 0.162056 29.7854 0.467113 30.2116C0.772171 30.6378 1.20346 30.9573 1.70001 31.125L6.42501 32.7L4.20001 37.15C3.97446 37.6158 3.89902 38.1401 3.9841 38.6506C4.06918 39.161 4.31058 39.6325 4.67501 40L10 45.325C10.3694 45.6948 10.8454 45.9395 11.3611 46.0247C11.8768 46.1099 12.4063 46.0313 12.875 45.8L17.325 43.575L18.9 48.3C19.0677 48.7965 19.3872 49.2278 19.8134 49.5329C20.2396 49.8379 20.7509 50.0013 21.275 50H28.775C29.2991 50.0013 29.8104 49.8379 30.2366 49.5329C30.6628 49.2278 30.9823 48.7965 31.15 48.3L32.725 43.575L37.175 45.8C37.6378 46.0199 38.157 46.0922 38.6623 46.0072C39.1676 45.9223 39.6345 45.6841 40 45.325L45.325 40C45.6948 39.6306 45.9395 39.1546 46.0247 38.6389C46.1099 38.1232 46.0313 37.5937 45.8 37.125L43.575 32.675L48.3 31.1C48.7925 30.9337 49.2209 30.6179 49.5256 30.1967C49.8303 29.7755 49.9961 29.2698 50 28.75V21.25C50.0013 20.7259 49.8379 20.2146 49.5329 19.7884C49.2278 19.3622 48.7965 19.0427 48.3 18.875ZM45 26.95L42 27.95C41.3101 28.1738 40.6772 28.5449 40.1451 29.0378C39.6131 29.5306 39.1945 30.1332 38.9186 30.8039C38.6428 31.4747 38.5161 32.1974 38.5474 32.9219C38.5787 33.6465 38.7673 34.3556 39.1 35L40.525 37.85L37.775 40.6L35 39.1C34.3589 38.7806 33.6566 38.6027 32.9408 38.5782C32.2249 38.5538 31.5122 38.6835 30.8508 38.9585C30.1894 39.2335 29.5948 39.6473 29.1073 40.1721C28.6198 40.6968 28.2507 41.3202 28.025 42L27.025 45H23.05L22.05 42C21.8262 41.3101 21.4551 40.6772 20.9622 40.1451C20.4694 39.6131 19.8668 39.1945 19.1961 38.9186C18.5253 38.6428 17.8026 38.5161 17.0781 38.5474C16.3535 38.5787 15.6444 38.7673 15 39.1L12.15 40.525L9.40001 37.775L10.9 35C11.2327 34.3556 11.4213 33.6465 11.4526 32.9219C11.4839 32.1974 11.3572 31.4747 11.0814 30.8039C10.8055 30.1332 10.387 29.5306 9.85487 29.0378C9.32279 28.5449 8.68986 28.1738 8.00001 27.95L5.00001 26.95V23.05L8.00001 22.05C8.68986 21.8262 9.32279 21.4551 9.85487 20.9622C10.387 20.4694 10.8055 19.8668 11.0814 19.1961C11.3572 18.5253 11.4839 17.8026 11.4526 17.0781C11.4213 16.3535 11.2327 15.6444 10.9 15L9.47501 12.225L12.225 9.47501L15 10.9C15.6444 11.2327 16.3535 11.4213 17.0781 11.4526C17.8026 11.4839 18.5253 11.3572 19.1961 11.0814C19.8668 10.8055 20.4694 10.387 20.9622 9.85487C21.4551 9.32279 21.8262 8.68986 22.05 8.00001L23.05 5.00001H26.95L27.95 8.00001C28.1738 8.68986 28.5449 9.32279 29.0378 9.85487C29.5306 10.387 30.1332 10.8055 30.8039 11.0814C31.4747 11.3572 32.1974 11.4839 32.9219 11.4526C33.6465 11.4213 34.3556 11.2327 35 10.9L37.85 9.47501L40.6 12.225L39.1 15C38.7806 15.6411 38.6027 16.3434 38.5782 17.0592C38.5538 17.7751 38.6835 18.4878 38.9585 19.1492C39.2335 19.8106 39.6473 20.4052 40.1721 20.8927C40.6968 21.3802 41.3202 21.7493 42 21.975L45 22.975V26.95ZM25 15C23.0222 15 21.0888 15.5865 19.4443 16.6853C17.7998 17.7841 16.5181 19.3459 15.7612 21.1732C15.0043 23.0004 14.8063 25.0111 15.1922 26.9509C15.578 28.8907 16.5304 30.6725 17.9289 32.0711C19.3275 33.4696 21.1093 34.422 23.0491 34.8079C24.9889 35.1937 26.9996 34.9957 28.8268 34.2388C30.6541 33.4819 32.2159 32.2002 33.3147 30.5557C34.4135 28.9112 35 26.9778 35 25C35 22.3478 33.9464 19.8043 32.0711 17.9289C30.1957 16.0536 27.6522 15 25 15V15ZM25 30C24.0111 30 23.0444 29.7068 22.2222 29.1573C21.3999 28.6079 20.759 27.827 20.3806 26.9134C20.0022 25.9998 19.9031 24.9945 20.0961 24.0245C20.289 23.0546 20.7652 22.1637 21.4645 21.4645C22.1637 20.7652 23.0546 20.289 24.0245 20.0961C24.9945 19.9031 25.9998 20.0022 26.9134 20.3806C27.827 20.759 28.6079 21.3999 29.1573 22.2222C29.7068 23.0444 30 24.0111 30 25C30 26.3261 29.4732 27.5979 28.5355 28.5355C27.5979 29.4732 26.3261 30 25 30Z" fill="#869ACE"/>
</svg>
